<mxfile host="app.diagrams.net" agent="Mozilla/5.0 (Macintosh; Intel Mac OS X 10_15_7) AppleWebKit/537.36 (KHTML, like Gecko) Chrome/131.0.0.0 Safari/537.36 Edg/131.0.0.0" version="25.0.3" pages="3">
  <diagram name="usecase" id="TwHk-kI8kQQZe3PxH04q">
    <mxGraphModel dx="2408" dy="2024" grid="1" gridSize="10" guides="1" tooltips="1" connect="1" arrows="1" fold="1" page="1" pageScale="1" pageWidth="827" pageHeight="1169" math="0" shadow="0">
      <root>
        <mxCell id="0" />
        <mxCell id="1" parent="0" />
        <mxCell id="GcIDPTe0jS2RN4q7dddE-26" value="" style="edgeStyle=orthogonalEdgeStyle;rounded=0;orthogonalLoop=1;jettySize=auto;html=1;" edge="1" parent="1" source="GcIDPTe0jS2RN4q7dddE-1" target="GcIDPTe0jS2RN4q7dddE-25">
          <mxGeometry relative="1" as="geometry" />
        </mxCell>
        <mxCell id="GcIDPTe0jS2RN4q7dddE-1" value="Nguoi mua hang" style="shape=umlActor;verticalLabelPosition=bottom;verticalAlign=top;html=1;" vertex="1" parent="1">
          <mxGeometry x="-190" y="-96" width="30" height="60" as="geometry" />
        </mxCell>
        <mxCell id="GcIDPTe0jS2RN4q7dddE-4" value="Xem danh sách sản phẩm" style="ellipse;whiteSpace=wrap;html=1;" vertex="1" parent="1">
          <mxGeometry x="224" y="-350" width="140" height="70" as="geometry" />
        </mxCell>
        <mxCell id="GcIDPTe0jS2RN4q7dddE-5" value="Tìm sản phẩm" style="ellipse;whiteSpace=wrap;html=1;" vertex="1" parent="1">
          <mxGeometry x="224" y="-220" width="140" height="70" as="geometry" />
        </mxCell>
        <mxCell id="GcIDPTe0jS2RN4q7dddE-7" value="Thêm sản phẩm vào giỏ hàng" style="ellipse;whiteSpace=wrap;html=1;" vertex="1" parent="1">
          <mxGeometry x="224" y="60" width="140" height="70" as="geometry" />
        </mxCell>
        <mxCell id="GcIDPTe0jS2RN4q7dddE-8" value="Đặt hàng" style="ellipse;whiteSpace=wrap;html=1;" vertex="1" parent="1">
          <mxGeometry x="224" y="170" width="140" height="70" as="geometry" />
        </mxCell>
        <mxCell id="GcIDPTe0jS2RN4q7dddE-9" value="Kiểm tra trạng thái đơn hàng đã đặt" style="ellipse;whiteSpace=wrap;html=1;" vertex="1" parent="1">
          <mxGeometry x="210" y="290" width="140" height="70" as="geometry" />
        </mxCell>
        <mxCell id="GcIDPTe0jS2RN4q7dddE-10" value="Xem sản phẩm theo danh mục" style="ellipse;whiteSpace=wrap;html=1;" vertex="1" parent="1">
          <mxGeometry x="380" y="-560" width="140" height="70" as="geometry" />
        </mxCell>
        <mxCell id="GcIDPTe0jS2RN4q7dddE-11" value="Xoá sản phẩm khỏi giỏ hàng" style="ellipse;whiteSpace=wrap;html=1;" vertex="1" parent="1">
          <mxGeometry x="450" y="60" width="140" height="70" as="geometry" />
        </mxCell>
        <mxCell id="GcIDPTe0jS2RN4q7dddE-13" value="extend" style="endArrow=open;endSize=12;dashed=1;html=1;rounded=0;" edge="1" parent="1" source="GcIDPTe0jS2RN4q7dddE-10" target="GcIDPTe0jS2RN4q7dddE-4">
          <mxGeometry width="160" relative="1" as="geometry">
            <mxPoint x="340" y="-220" as="sourcePoint" />
            <mxPoint x="500" y="-220" as="targetPoint" />
          </mxGeometry>
        </mxCell>
        <mxCell id="GcIDPTe0jS2RN4q7dddE-14" value="include" style="endArrow=open;endSize=12;dashed=1;html=1;rounded=0;" edge="1" parent="1" source="GcIDPTe0jS2RN4q7dddE-11" target="GcIDPTe0jS2RN4q7dddE-7">
          <mxGeometry width="160" relative="1" as="geometry">
            <mxPoint x="300" y="40" as="sourcePoint" />
            <mxPoint x="460" y="40" as="targetPoint" />
          </mxGeometry>
        </mxCell>
        <mxCell id="GcIDPTe0jS2RN4q7dddE-15" value="" style="endArrow=open;endFill=1;endSize=12;html=1;rounded=0;exitX=0.5;exitY=0.5;exitDx=0;exitDy=0;exitPerimeter=0;" edge="1" parent="1" source="GcIDPTe0jS2RN4q7dddE-1" target="GcIDPTe0jS2RN4q7dddE-4">
          <mxGeometry width="160" relative="1" as="geometry">
            <mxPoint x="110" y="-60" as="sourcePoint" />
            <mxPoint x="270" y="-60" as="targetPoint" />
          </mxGeometry>
        </mxCell>
        <mxCell id="GcIDPTe0jS2RN4q7dddE-16" value="" style="endArrow=open;endFill=1;endSize=12;html=1;rounded=0;exitX=0.5;exitY=0.5;exitDx=0;exitDy=0;exitPerimeter=0;" edge="1" parent="1" source="GcIDPTe0jS2RN4q7dddE-1" target="GcIDPTe0jS2RN4q7dddE-5">
          <mxGeometry width="160" relative="1" as="geometry">
            <mxPoint x="130" y="-130" as="sourcePoint" />
            <mxPoint x="290" y="-130" as="targetPoint" />
          </mxGeometry>
        </mxCell>
        <mxCell id="GcIDPTe0jS2RN4q7dddE-17" value="" style="endArrow=open;endFill=1;endSize=12;html=1;rounded=0;exitX=0.5;exitY=0.5;exitDx=0;exitDy=0;exitPerimeter=0;" edge="1" parent="1" source="GcIDPTe0jS2RN4q7dddE-1" target="GcIDPTe0jS2RN4q7dddE-6">
          <mxGeometry width="160" relative="1" as="geometry">
            <mxPoint x="90" y="-80" as="sourcePoint" />
            <mxPoint x="250" y="-80" as="targetPoint" />
          </mxGeometry>
        </mxCell>
        <mxCell id="GcIDPTe0jS2RN4q7dddE-18" value="" style="endArrow=open;endFill=1;endSize=12;html=1;rounded=0;exitX=0.5;exitY=0.5;exitDx=0;exitDy=0;exitPerimeter=0;" edge="1" parent="1" source="GcIDPTe0jS2RN4q7dddE-1" target="GcIDPTe0jS2RN4q7dddE-7">
          <mxGeometry width="160" relative="1" as="geometry">
            <mxPoint x="50" y="-50" as="sourcePoint" />
            <mxPoint x="210" y="-50" as="targetPoint" />
          </mxGeometry>
        </mxCell>
        <mxCell id="GcIDPTe0jS2RN4q7dddE-19" value="" style="endArrow=open;endFill=1;endSize=12;html=1;rounded=0;exitX=0.5;exitY=0.5;exitDx=0;exitDy=0;exitPerimeter=0;" edge="1" parent="1" source="GcIDPTe0jS2RN4q7dddE-1" target="GcIDPTe0jS2RN4q7dddE-8">
          <mxGeometry width="160" relative="1" as="geometry">
            <mxPoint x="50" y="50" as="sourcePoint" />
            <mxPoint x="210" y="50" as="targetPoint" />
          </mxGeometry>
        </mxCell>
        <mxCell id="GcIDPTe0jS2RN4q7dddE-21" value="" style="endArrow=open;endFill=1;endSize=12;html=1;rounded=0;exitX=0.5;exitY=0.5;exitDx=0;exitDy=0;exitPerimeter=0;" edge="1" parent="1" source="GcIDPTe0jS2RN4q7dddE-1" target="GcIDPTe0jS2RN4q7dddE-9">
          <mxGeometry width="160" relative="1" as="geometry">
            <mxPoint x="90" y="-30" as="sourcePoint" />
            <mxPoint x="250" y="-30" as="targetPoint" />
          </mxGeometry>
        </mxCell>
        <mxCell id="GcIDPTe0jS2RN4q7dddE-25" value="Khách vãng lai" style="shape=umlActor;verticalLabelPosition=bottom;verticalAlign=top;html=1;" vertex="1" parent="1">
          <mxGeometry x="-190" y="44" width="30" height="60" as="geometry" />
        </mxCell>
        <mxCell id="GcIDPTe0jS2RN4q7dddE-27" value="Người bán hàng" style="shape=umlActor;verticalLabelPosition=bottom;verticalAlign=top;html=1;" vertex="1" parent="1">
          <mxGeometry x="1760" y="-175" width="30" height="60" as="geometry" />
        </mxCell>
        <mxCell id="GcIDPTe0jS2RN4q7dddE-28" value="Quản lí sản phẩm" style="ellipse;whiteSpace=wrap;html=1;" vertex="1" parent="1">
          <mxGeometry x="1090" y="-590" width="140" height="70" as="geometry" />
        </mxCell>
        <mxCell id="GcIDPTe0jS2RN4q7dddE-29" value="Quản lí danh mục" style="ellipse;whiteSpace=wrap;html=1;" vertex="1" parent="1">
          <mxGeometry x="1030" y="-180" width="140" height="70" as="geometry" />
        </mxCell>
        <mxCell id="GcIDPTe0jS2RN4q7dddE-30" value="Quản lí đơn hàng" style="ellipse;whiteSpace=wrap;html=1;" vertex="1" parent="1">
          <mxGeometry x="1010" y="230" width="140" height="70" as="geometry" />
        </mxCell>
        <mxCell id="GcIDPTe0jS2RN4q7dddE-31" value="Quản lí khách hàng" style="ellipse;whiteSpace=wrap;html=1;" vertex="1" parent="1">
          <mxGeometry x="840" y="590" width="140" height="70" as="geometry" />
        </mxCell>
        <mxCell id="GcIDPTe0jS2RN4q7dddE-32" value="Quản lí doanh thu" style="ellipse;whiteSpace=wrap;html=1;" vertex="1" parent="1">
          <mxGeometry x="1150" y="740" width="140" height="70" as="geometry" />
        </mxCell>
        <mxCell id="GcIDPTe0jS2RN4q7dddE-33" value="" style="endArrow=open;endFill=1;endSize=12;html=1;rounded=0;exitX=0.5;exitY=0.5;exitDx=0;exitDy=0;exitPerimeter=0;" edge="1" parent="1" source="GcIDPTe0jS2RN4q7dddE-27" target="GcIDPTe0jS2RN4q7dddE-28">
          <mxGeometry width="160" relative="1" as="geometry">
            <mxPoint x="1250" y="170" as="sourcePoint" />
            <mxPoint x="1410" y="170" as="targetPoint" />
          </mxGeometry>
        </mxCell>
        <mxCell id="GcIDPTe0jS2RN4q7dddE-34" value="" style="endArrow=open;endFill=1;endSize=12;html=1;rounded=0;exitX=0.5;exitY=0.5;exitDx=0;exitDy=0;exitPerimeter=0;" edge="1" parent="1" source="GcIDPTe0jS2RN4q7dddE-27" target="GcIDPTe0jS2RN4q7dddE-29">
          <mxGeometry width="160" relative="1" as="geometry">
            <mxPoint x="1310" y="120" as="sourcePoint" />
            <mxPoint x="1470" y="120" as="targetPoint" />
          </mxGeometry>
        </mxCell>
        <mxCell id="GcIDPTe0jS2RN4q7dddE-35" value="" style="endArrow=open;endFill=1;endSize=12;html=1;rounded=0;exitX=0.5;exitY=0.5;exitDx=0;exitDy=0;exitPerimeter=0;" edge="1" parent="1" source="GcIDPTe0jS2RN4q7dddE-27" target="GcIDPTe0jS2RN4q7dddE-30">
          <mxGeometry width="160" relative="1" as="geometry">
            <mxPoint x="1270" y="130" as="sourcePoint" />
            <mxPoint x="1430" y="130" as="targetPoint" />
          </mxGeometry>
        </mxCell>
        <mxCell id="GcIDPTe0jS2RN4q7dddE-36" value="" style="endArrow=open;endFill=1;endSize=12;html=1;rounded=0;exitX=0.5;exitY=0.5;exitDx=0;exitDy=0;exitPerimeter=0;" edge="1" parent="1" source="GcIDPTe0jS2RN4q7dddE-27" target="GcIDPTe0jS2RN4q7dddE-31">
          <mxGeometry width="160" relative="1" as="geometry">
            <mxPoint x="1310" y="210" as="sourcePoint" />
            <mxPoint x="1470" y="210" as="targetPoint" />
          </mxGeometry>
        </mxCell>
        <mxCell id="GcIDPTe0jS2RN4q7dddE-37" value="" style="endArrow=open;endFill=1;endSize=12;html=1;rounded=0;exitX=0.5;exitY=0.5;exitDx=0;exitDy=0;exitPerimeter=0;" edge="1" parent="1" source="GcIDPTe0jS2RN4q7dddE-27" target="GcIDPTe0jS2RN4q7dddE-32">
          <mxGeometry width="160" relative="1" as="geometry">
            <mxPoint x="1350" y="340" as="sourcePoint" />
            <mxPoint x="1510" y="340" as="targetPoint" />
          </mxGeometry>
        </mxCell>
        <mxCell id="GcIDPTe0jS2RN4q7dddE-38" value="Thêm sản phẩm mới" style="ellipse;whiteSpace=wrap;html=1;" vertex="1" parent="1">
          <mxGeometry x="770" y="-730" width="140" height="70" as="geometry" />
        </mxCell>
        <mxCell id="GcIDPTe0jS2RN4q7dddE-39" value="Xem danh sách sản phẩm" style="ellipse;whiteSpace=wrap;html=1;" vertex="1" parent="1">
          <mxGeometry x="770" y="-619" width="140" height="70" as="geometry" />
        </mxCell>
        <mxCell id="GcIDPTe0jS2RN4q7dddE-40" value="Chỉnh sửa sản phẩm" style="ellipse;whiteSpace=wrap;html=1;" vertex="1" parent="1">
          <mxGeometry x="760" y="-499" width="140" height="70" as="geometry" />
        </mxCell>
        <mxCell id="GcIDPTe0jS2RN4q7dddE-41" value="Xoá sản phẩm" style="ellipse;whiteSpace=wrap;html=1;" vertex="1" parent="1">
          <mxGeometry x="750" y="-390" width="140" height="70" as="geometry" />
        </mxCell>
        <mxCell id="GcIDPTe0jS2RN4q7dddE-43" value="extend" style="endArrow=open;endSize=12;dashed=1;html=1;rounded=0;" edge="1" parent="1" source="GcIDPTe0jS2RN4q7dddE-38" target="GcIDPTe0jS2RN4q7dddE-28">
          <mxGeometry width="160" relative="1" as="geometry">
            <mxPoint x="890" y="-490" as="sourcePoint" />
            <mxPoint x="1050" y="-490" as="targetPoint" />
          </mxGeometry>
        </mxCell>
        <mxCell id="GcIDPTe0jS2RN4q7dddE-44" value="extend" style="endArrow=open;endSize=12;dashed=1;html=1;rounded=0;" edge="1" parent="1" source="GcIDPTe0jS2RN4q7dddE-39" target="GcIDPTe0jS2RN4q7dddE-28">
          <mxGeometry width="160" relative="1" as="geometry">
            <mxPoint x="940" y="-270" as="sourcePoint" />
            <mxPoint x="1100" y="-270" as="targetPoint" />
          </mxGeometry>
        </mxCell>
        <mxCell id="GcIDPTe0jS2RN4q7dddE-45" value="extend" style="endArrow=open;endSize=12;dashed=1;html=1;rounded=0;" edge="1" parent="1" source="GcIDPTe0jS2RN4q7dddE-40" target="GcIDPTe0jS2RN4q7dddE-28">
          <mxGeometry width="160" relative="1" as="geometry">
            <mxPoint x="910" y="-270" as="sourcePoint" />
            <mxPoint x="1070" y="-270" as="targetPoint" />
          </mxGeometry>
        </mxCell>
        <mxCell id="GcIDPTe0jS2RN4q7dddE-46" value="extend" style="endArrow=open;endSize=12;dashed=1;html=1;rounded=0;" edge="1" parent="1" source="GcIDPTe0jS2RN4q7dddE-41" target="GcIDPTe0jS2RN4q7dddE-28">
          <mxGeometry width="160" relative="1" as="geometry">
            <mxPoint x="920" y="-190" as="sourcePoint" />
            <mxPoint x="1080" y="-190" as="targetPoint" />
          </mxGeometry>
        </mxCell>
        <mxCell id="GcIDPTe0jS2RN4q7dddE-47" value="Thêm danh mục mới" style="ellipse;whiteSpace=wrap;html=1;" vertex="1" parent="1">
          <mxGeometry x="720" y="-290" width="140" height="70" as="geometry" />
        </mxCell>
        <mxCell id="GcIDPTe0jS2RN4q7dddE-48" value="Xem danh sách danh mục" style="ellipse;whiteSpace=wrap;html=1;" vertex="1" parent="1">
          <mxGeometry x="720" y="-179" width="140" height="70" as="geometry" />
        </mxCell>
        <mxCell id="GcIDPTe0jS2RN4q7dddE-49" value="Chỉnh sửa danh mục" style="ellipse;whiteSpace=wrap;html=1;" vertex="1" parent="1">
          <mxGeometry x="710" y="-59" width="140" height="70" as="geometry" />
        </mxCell>
        <mxCell id="GcIDPTe0jS2RN4q7dddE-50" value="Xoá danh mục" style="ellipse;whiteSpace=wrap;html=1;" vertex="1" parent="1">
          <mxGeometry x="700" y="50" width="140" height="70" as="geometry" />
        </mxCell>
        <mxCell id="GcIDPTe0jS2RN4q7dddE-51" value="extend" style="endArrow=open;endSize=12;dashed=1;html=1;rounded=0;" edge="1" parent="1" source="GcIDPTe0jS2RN4q7dddE-47" target="GcIDPTe0jS2RN4q7dddE-29">
          <mxGeometry width="160" relative="1" as="geometry">
            <mxPoint x="870" y="-46" as="sourcePoint" />
            <mxPoint x="1051" y="70" as="targetPoint" />
          </mxGeometry>
        </mxCell>
        <mxCell id="GcIDPTe0jS2RN4q7dddE-52" value="extend" style="endArrow=open;endSize=12;dashed=1;html=1;rounded=0;" edge="1" parent="1" source="GcIDPTe0jS2RN4q7dddE-48" target="GcIDPTe0jS2RN4q7dddE-29">
          <mxGeometry width="160" relative="1" as="geometry">
            <mxPoint x="920" y="174" as="sourcePoint" />
            <mxPoint x="1032" y="79" as="targetPoint" />
          </mxGeometry>
        </mxCell>
        <mxCell id="GcIDPTe0jS2RN4q7dddE-53" value="extend" style="endArrow=open;endSize=12;dashed=1;html=1;rounded=0;" edge="1" parent="1" source="GcIDPTe0jS2RN4q7dddE-49" target="GcIDPTe0jS2RN4q7dddE-29">
          <mxGeometry width="160" relative="1" as="geometry">
            <mxPoint x="890" y="174" as="sourcePoint" />
            <mxPoint x="1021" y="106" as="targetPoint" />
          </mxGeometry>
        </mxCell>
        <mxCell id="GcIDPTe0jS2RN4q7dddE-54" value="extend" style="endArrow=open;endSize=12;dashed=1;html=1;rounded=0;" edge="1" parent="1" source="GcIDPTe0jS2RN4q7dddE-50" target="GcIDPTe0jS2RN4q7dddE-29">
          <mxGeometry width="160" relative="1" as="geometry">
            <mxPoint x="900" y="254" as="sourcePoint" />
            <mxPoint x="1039" y="123" as="targetPoint" />
          </mxGeometry>
        </mxCell>
        <mxCell id="GcIDPTe0jS2RN4q7dddE-55" value="Xem danh sách đơn hàng" style="ellipse;whiteSpace=wrap;html=1;" vertex="1" parent="1">
          <mxGeometry x="740" y="161" width="140" height="70" as="geometry" />
        </mxCell>
        <mxCell id="GcIDPTe0jS2RN4q7dddE-56" value="Duyệt đơn hàng" style="ellipse;whiteSpace=wrap;html=1;" vertex="1" parent="1">
          <mxGeometry x="730" y="280" width="140" height="70" as="geometry" />
        </mxCell>
        <mxCell id="GcIDPTe0jS2RN4q7dddE-57" value="Huỷ đơn hàng" style="ellipse;whiteSpace=wrap;html=1;" vertex="1" parent="1">
          <mxGeometry x="730" y="400" width="140" height="70" as="geometry" />
        </mxCell>
        <mxCell id="GcIDPTe0jS2RN4q7dddE-59" value="extend" style="endArrow=open;endSize=12;dashed=1;html=1;rounded=0;" edge="1" parent="1" source="GcIDPTe0jS2RN4q7dddE-55" target="GcIDPTe0jS2RN4q7dddE-30">
          <mxGeometry width="160" relative="1" as="geometry">
            <mxPoint x="840" y="230" as="sourcePoint" />
            <mxPoint x="1000" y="230" as="targetPoint" />
          </mxGeometry>
        </mxCell>
        <mxCell id="GcIDPTe0jS2RN4q7dddE-60" value="extend" style="endArrow=open;endSize=12;dashed=1;html=1;rounded=0;" edge="1" parent="1" source="GcIDPTe0jS2RN4q7dddE-56" target="GcIDPTe0jS2RN4q7dddE-30">
          <mxGeometry width="160" relative="1" as="geometry">
            <mxPoint x="882" y="222" as="sourcePoint" />
            <mxPoint x="1027" y="259" as="targetPoint" />
          </mxGeometry>
        </mxCell>
        <mxCell id="GcIDPTe0jS2RN4q7dddE-61" value="extend" style="endArrow=open;endSize=12;dashed=1;html=1;rounded=0;" edge="1" parent="1" source="GcIDPTe0jS2RN4q7dddE-57" target="GcIDPTe0jS2RN4q7dddE-30">
          <mxGeometry width="160" relative="1" as="geometry">
            <mxPoint x="892" y="232" as="sourcePoint" />
            <mxPoint x="1037" y="269" as="targetPoint" />
          </mxGeometry>
        </mxCell>
        <mxCell id="GcIDPTe0jS2RN4q7dddE-62" value="Xem danh sách khách hàng" style="ellipse;whiteSpace=wrap;html=1;" vertex="1" parent="1">
          <mxGeometry x="560" y="531" width="140" height="70" as="geometry" />
        </mxCell>
        <mxCell id="GcIDPTe0jS2RN4q7dddE-63" value="Vô hiệu hoá tài khoản" style="ellipse;whiteSpace=wrap;html=1;" vertex="1" parent="1">
          <mxGeometry x="560" y="660" width="140" height="70" as="geometry" />
        </mxCell>
        <mxCell id="GcIDPTe0jS2RN4q7dddE-64" value="extend" style="endArrow=open;endSize=12;dashed=1;html=1;rounded=0;" edge="1" parent="1" source="GcIDPTe0jS2RN4q7dddE-62" target="GcIDPTe0jS2RN4q7dddE-31">
          <mxGeometry width="160" relative="1" as="geometry">
            <mxPoint x="720" y="520" as="sourcePoint" />
            <mxPoint x="880" y="520" as="targetPoint" />
          </mxGeometry>
        </mxCell>
        <mxCell id="GcIDPTe0jS2RN4q7dddE-65" value="extend" style="endArrow=open;endSize=12;dashed=1;html=1;rounded=0;" edge="1" parent="1" source="GcIDPTe0jS2RN4q7dddE-63" target="GcIDPTe0jS2RN4q7dddE-31">
          <mxGeometry width="160" relative="1" as="geometry">
            <mxPoint x="770" y="770" as="sourcePoint" />
            <mxPoint x="930" y="770" as="targetPoint" />
          </mxGeometry>
        </mxCell>
        <mxCell id="GcIDPTe0jS2RN4q7dddE-66" value="extend" style="endArrow=open;endSize=12;dashed=1;html=1;rounded=0;" edge="1" parent="1" source="GcIDPTe0jS2RN4q7dddE-67" target="GcIDPTe0jS2RN4q7dddE-32">
          <mxGeometry width="160" relative="1" as="geometry">
            <mxPoint x="110" y="930" as="sourcePoint" />
            <mxPoint x="270" y="930" as="targetPoint" />
          </mxGeometry>
        </mxCell>
        <mxCell id="GcIDPTe0jS2RN4q7dddE-67" value="Xem doanh thu theo ngày/tuần/tháng" style="ellipse;whiteSpace=wrap;html=1;" vertex="1" parent="1">
          <mxGeometry x="870" y="740" width="140" height="70" as="geometry" />
        </mxCell>
        <mxCell id="GcIDPTe0jS2RN4q7dddE-68" value="extend" style="endArrow=open;endSize=12;dashed=1;html=1;rounded=0;" edge="1" parent="1" source="GcIDPTe0jS2RN4q7dddE-69" target="GcIDPTe0jS2RN4q7dddE-32">
          <mxGeometry width="160" relative="1" as="geometry">
            <mxPoint x="960" y="930" as="sourcePoint" />
            <mxPoint x="1120" y="930" as="targetPoint" />
          </mxGeometry>
        </mxCell>
        <mxCell id="GcIDPTe0jS2RN4q7dddE-69" value="Xem doanh thu theo sản phẩm" style="ellipse;whiteSpace=wrap;html=1;" vertex="1" parent="1">
          <mxGeometry x="880" y="840" width="140" height="70" as="geometry" />
        </mxCell>
        <mxCell id="GcIDPTe0jS2RN4q7dddE-70" value="Đăng nhập" style="ellipse;whiteSpace=wrap;html=1;" vertex="1" parent="1">
          <mxGeometry x="130" y="585" width="140" height="70" as="geometry" />
        </mxCell>
        <mxCell id="GcIDPTe0jS2RN4q7dddE-71" value="Đăng ký" style="ellipse;whiteSpace=wrap;html=1;" vertex="1" parent="1">
          <mxGeometry x="190" y="440" width="140" height="70" as="geometry" />
        </mxCell>
        <mxCell id="GcIDPTe0jS2RN4q7dddE-74" value="" style="endArrow=open;endFill=1;endSize=12;html=1;rounded=0;exitX=0.5;exitY=0.5;exitDx=0;exitDy=0;exitPerimeter=0;" edge="1" parent="1" source="GcIDPTe0jS2RN4q7dddE-25" target="GcIDPTe0jS2RN4q7dddE-4">
          <mxGeometry width="160" relative="1" as="geometry">
            <mxPoint x="140" y="100" as="sourcePoint" />
            <mxPoint x="300" y="100" as="targetPoint" />
          </mxGeometry>
        </mxCell>
        <mxCell id="GcIDPTe0jS2RN4q7dddE-75" value="" style="endArrow=open;endFill=1;endSize=12;html=1;rounded=0;exitX=0.5;exitY=0.5;exitDx=0;exitDy=0;exitPerimeter=0;" edge="1" parent="1" source="GcIDPTe0jS2RN4q7dddE-25" target="GcIDPTe0jS2RN4q7dddE-71">
          <mxGeometry width="160" relative="1" as="geometry">
            <mxPoint x="340" y="-130" as="sourcePoint" />
            <mxPoint x="500" y="-130" as="targetPoint" />
          </mxGeometry>
        </mxCell>
        <mxCell id="GcIDPTe0jS2RN4q7dddE-76" value="" style="endArrow=open;endFill=1;endSize=12;html=1;rounded=0;exitX=0.5;exitY=0.5;exitDx=0;exitDy=0;exitPerimeter=0;" edge="1" parent="1" source="GcIDPTe0jS2RN4q7dddE-25" target="GcIDPTe0jS2RN4q7dddE-5">
          <mxGeometry width="160" relative="1" as="geometry">
            <mxPoint x="50" y="120" as="sourcePoint" />
            <mxPoint x="210" y="120" as="targetPoint" />
          </mxGeometry>
        </mxCell>
        <mxCell id="GcIDPTe0jS2RN4q7dddE-77" value="" style="endArrow=open;endFill=1;endSize=12;html=1;rounded=0;exitX=0.5;exitY=0.5;exitDx=0;exitDy=0;exitPerimeter=0;" edge="1" parent="1" source="GcIDPTe0jS2RN4q7dddE-25" target="GcIDPTe0jS2RN4q7dddE-6">
          <mxGeometry width="160" relative="1" as="geometry">
            <mxPoint x="50" y="140" as="sourcePoint" />
            <mxPoint x="210" y="140" as="targetPoint" />
          </mxGeometry>
        </mxCell>
        <mxCell id="GcIDPTe0jS2RN4q7dddE-78" value="" style="endArrow=open;endFill=1;endSize=12;html=1;rounded=0;exitX=0.5;exitY=0.5;exitDx=0;exitDy=0;exitPerimeter=0;" edge="1" parent="1" source="GcIDPTe0jS2RN4q7dddE-25" target="GcIDPTe0jS2RN4q7dddE-70">
          <mxGeometry width="160" relative="1" as="geometry">
            <mxPoint x="40" y="320" as="sourcePoint" />
            <mxPoint x="200" y="320" as="targetPoint" />
          </mxGeometry>
        </mxCell>
        <mxCell id="GcIDPTe0jS2RN4q7dddE-80" value="Kiểm tra sản phẩm tồn tại" style="ellipse;whiteSpace=wrap;html=1;" vertex="1" parent="1">
          <mxGeometry x="480" y="-200" width="140" height="70" as="geometry" />
        </mxCell>
        <mxCell id="GcIDPTe0jS2RN4q7dddE-81" value="include" style="endArrow=open;endSize=12;dashed=1;html=1;rounded=0;" edge="1" parent="1" source="GcIDPTe0jS2RN4q7dddE-5" target="GcIDPTe0jS2RN4q7dddE-80">
          <mxGeometry width="160" relative="1" as="geometry">
            <mxPoint x="440" y="-80" as="sourcePoint" />
            <mxPoint x="600" y="-80" as="targetPoint" />
          </mxGeometry>
        </mxCell>
        <mxCell id="GcIDPTe0jS2RN4q7dddE-82" value="include" style="endArrow=open;endSize=12;dashed=1;html=1;rounded=0;" edge="1" parent="1" source="GcIDPTe0jS2RN4q7dddE-6" target="GcIDPTe0jS2RN4q7dddE-80">
          <mxGeometry width="160" relative="1" as="geometry">
            <mxPoint x="430" y="-50" as="sourcePoint" />
            <mxPoint x="590" y="-50" as="targetPoint" />
          </mxGeometry>
        </mxCell>
        <mxCell id="GcIDPTe0jS2RN4q7dddE-84" value="include" style="endArrow=open;endSize=12;dashed=1;html=1;rounded=0;" edge="1" parent="1" source="GcIDPTe0jS2RN4q7dddE-8" target="GcIDPTe0jS2RN4q7dddE-85">
          <mxGeometry width="160" relative="1" as="geometry">
            <mxPoint x="470" y="320" as="sourcePoint" />
            <mxPoint x="630" y="320" as="targetPoint" />
          </mxGeometry>
        </mxCell>
        <mxCell id="GcIDPTe0jS2RN4q7dddE-85" value="kiểm tra số lượng sản phẩm" style="ellipse;whiteSpace=wrap;html=1;" vertex="1" parent="1">
          <mxGeometry x="480" y="200" width="140" height="70" as="geometry" />
        </mxCell>
        <mxCell id="GcIDPTe0jS2RN4q7dddE-86" value="Kiểm tra người dùng tồn tại" style="ellipse;whiteSpace=wrap;html=1;" vertex="1" parent="1">
          <mxGeometry x="440" y="450" width="140" height="70" as="geometry" />
        </mxCell>
        <mxCell id="GcIDPTe0jS2RN4q7dddE-87" value="include" style="endArrow=open;endSize=12;dashed=1;html=1;rounded=0;" edge="1" parent="1" source="GcIDPTe0jS2RN4q7dddE-71" target="GcIDPTe0jS2RN4q7dddE-86">
          <mxGeometry width="160" relative="1" as="geometry">
            <mxPoint x="310" y="580" as="sourcePoint" />
            <mxPoint x="470" y="580" as="targetPoint" />
          </mxGeometry>
        </mxCell>
        <mxCell id="GcIDPTe0jS2RN4q7dddE-88" value="Xác thực tài khoản" style="ellipse;whiteSpace=wrap;html=1;" vertex="1" parent="1">
          <mxGeometry x="344" y="620" width="140" height="70" as="geometry" />
        </mxCell>
        <mxCell id="GcIDPTe0jS2RN4q7dddE-89" value="include" style="endArrow=open;endSize=12;dashed=1;html=1;rounded=0;" edge="1" parent="1" source="GcIDPTe0jS2RN4q7dddE-70" target="GcIDPTe0jS2RN4q7dddE-88">
          <mxGeometry width="160" relative="1" as="geometry">
            <mxPoint x="270" y="590" as="sourcePoint" />
            <mxPoint x="430" y="590" as="targetPoint" />
          </mxGeometry>
        </mxCell>
        <mxCell id="GcIDPTe0jS2RN4q7dddE-90" value="include" style="endArrow=open;endSize=12;dashed=1;html=1;rounded=0;" edge="1" parent="1" source="GcIDPTe0jS2RN4q7dddE-40" target="GcIDPTe0jS2RN4q7dddE-80">
          <mxGeometry width="160" relative="1" as="geometry">
            <mxPoint x="540" y="-360" as="sourcePoint" />
            <mxPoint x="700" y="-360" as="targetPoint" />
          </mxGeometry>
        </mxCell>
        <mxCell id="GcIDPTe0jS2RN4q7dddE-91" value="include" style="endArrow=open;endSize=12;dashed=1;html=1;rounded=0;" edge="1" parent="1" source="GcIDPTe0jS2RN4q7dddE-41" target="GcIDPTe0jS2RN4q7dddE-80">
          <mxGeometry width="160" relative="1" as="geometry">
            <mxPoint x="500" y="-370" as="sourcePoint" />
            <mxPoint x="660" y="-370" as="targetPoint" />
          </mxGeometry>
        </mxCell>
        <mxCell id="GcIDPTe0jS2RN4q7dddE-92" value="Kiểm tra danh mục tồn tại" style="ellipse;whiteSpace=wrap;html=1;" vertex="1" parent="1">
          <mxGeometry x="490" y="-50" width="140" height="70" as="geometry" />
        </mxCell>
        <mxCell id="GcIDPTe0jS2RN4q7dddE-93" value="include" style="endArrow=open;endSize=12;dashed=1;html=1;rounded=0;" edge="1" parent="1" source="GcIDPTe0jS2RN4q7dddE-49" target="GcIDPTe0jS2RN4q7dddE-92">
          <mxGeometry width="160" relative="1" as="geometry">
            <mxPoint x="640" y="80" as="sourcePoint" />
            <mxPoint x="800" y="80" as="targetPoint" />
          </mxGeometry>
        </mxCell>
        <mxCell id="GcIDPTe0jS2RN4q7dddE-94" value="include" style="endArrow=open;endSize=12;dashed=1;html=1;rounded=0;" edge="1" parent="1" source="GcIDPTe0jS2RN4q7dddE-50" target="GcIDPTe0jS2RN4q7dddE-92">
          <mxGeometry width="160" relative="1" as="geometry">
            <mxPoint x="620" y="70" as="sourcePoint" />
            <mxPoint x="780" y="70" as="targetPoint" />
          </mxGeometry>
        </mxCell>
        <mxCell id="GcIDPTe0jS2RN4q7dddE-95" value="Hệ thống" style="shape=umlActor;verticalLabelPosition=bottom;verticalAlign=top;html=1;" vertex="1" parent="1">
          <mxGeometry x="-189" y="-520" width="30" height="60" as="geometry" />
        </mxCell>
        <mxCell id="GcIDPTe0jS2RN4q7dddE-96" value="" style="endArrow=open;endFill=1;endSize=12;html=1;rounded=0;exitX=0.5;exitY=0.5;exitDx=0;exitDy=0;exitPerimeter=0;" edge="1" parent="1" source="GcIDPTe0jS2RN4q7dddE-95" target="GcIDPTe0jS2RN4q7dddE-80">
          <mxGeometry width="160" relative="1" as="geometry">
            <mxPoint x="180" y="-390" as="sourcePoint" />
            <mxPoint x="340" y="-390" as="targetPoint" />
          </mxGeometry>
        </mxCell>
        <mxCell id="GcIDPTe0jS2RN4q7dddE-97" value="" style="endArrow=open;endFill=1;endSize=12;html=1;rounded=0;exitX=0.5;exitY=0.5;exitDx=0;exitDy=0;exitPerimeter=0;" edge="1" parent="1" source="GcIDPTe0jS2RN4q7dddE-95" target="GcIDPTe0jS2RN4q7dddE-92">
          <mxGeometry width="160" relative="1" as="geometry">
            <mxPoint x="120" y="-360" as="sourcePoint" />
            <mxPoint x="280" y="-360" as="targetPoint" />
          </mxGeometry>
        </mxCell>
        <mxCell id="GcIDPTe0jS2RN4q7dddE-98" value="" style="endArrow=open;endFill=1;endSize=12;html=1;rounded=0;exitX=0.5;exitY=0.5;exitDx=0;exitDy=0;exitPerimeter=0;" edge="1" parent="1" source="GcIDPTe0jS2RN4q7dddE-95" target="GcIDPTe0jS2RN4q7dddE-85">
          <mxGeometry width="160" relative="1" as="geometry">
            <mxPoint x="130" y="-350" as="sourcePoint" />
            <mxPoint x="290" y="-350" as="targetPoint" />
          </mxGeometry>
        </mxCell>
        <mxCell id="GcIDPTe0jS2RN4q7dddE-99" value="" style="endArrow=open;endFill=1;endSize=12;html=1;rounded=0;exitX=0.5;exitY=0.5;exitDx=0;exitDy=0;exitPerimeter=0;" edge="1" parent="1" source="GcIDPTe0jS2RN4q7dddE-95" target="GcIDPTe0jS2RN4q7dddE-86">
          <mxGeometry width="160" relative="1" as="geometry">
            <mxPoint x="100" y="-400" as="sourcePoint" />
            <mxPoint x="260" y="-400" as="targetPoint" />
          </mxGeometry>
        </mxCell>
        <mxCell id="GcIDPTe0jS2RN4q7dddE-6" value="Xem chi tiết sản phẩm" style="ellipse;whiteSpace=wrap;html=1;" vertex="1" parent="1">
          <mxGeometry x="224" y="-80" width="140" height="70" as="geometry" />
        </mxCell>
        <mxCell id="GcIDPTe0jS2RN4q7dddE-100" value="frame" style="shape=umlFrame;whiteSpace=wrap;html=1;pointerEvents=0;" vertex="1" parent="1">
          <mxGeometry x="20" y="-770" width="1420" height="1770" as="geometry" />
        </mxCell>
      </root>
    </mxGraphModel>
  </diagram>
  <diagram id="0QodfljR46gGmPLSa9-_" name="class">
    <mxGraphModel dx="2075" dy="1844" grid="1" gridSize="10" guides="1" tooltips="1" connect="1" arrows="1" fold="1" page="1" pageScale="1" pageWidth="827" pageHeight="1169" math="0" shadow="0">
      <root>
        <mxCell id="0" />
        <mxCell id="1" parent="0" />
        <mxCell id="e08fS9AS4xx21WkD1ZGK-1" value="Người mua hàng" style="swimlane;fontStyle=1;align=center;verticalAlign=top;childLayout=stackLayout;horizontal=1;startSize=26;horizontalStack=0;resizeParent=1;resizeParentMax=0;resizeLast=0;collapsible=1;marginBottom=0;whiteSpace=wrap;html=1;" vertex="1" parent="1">
          <mxGeometry x="480" y="60" width="160" height="86" as="geometry" />
        </mxCell>
        <mxCell id="e08fS9AS4xx21WkD1ZGK-2" value="+ field: type" style="text;strokeColor=none;fillColor=none;align=left;verticalAlign=top;spacingLeft=4;spacingRight=4;overflow=hidden;rotatable=0;points=[[0,0.5],[1,0.5]];portConstraint=eastwest;whiteSpace=wrap;html=1;" vertex="1" parent="e08fS9AS4xx21WkD1ZGK-1">
          <mxGeometry y="26" width="160" height="26" as="geometry" />
        </mxCell>
        <mxCell id="e08fS9AS4xx21WkD1ZGK-3" value="" style="line;strokeWidth=1;fillColor=none;align=left;verticalAlign=middle;spacingTop=-1;spacingLeft=3;spacingRight=3;rotatable=0;labelPosition=right;points=[];portConstraint=eastwest;strokeColor=inherit;" vertex="1" parent="e08fS9AS4xx21WkD1ZGK-1">
          <mxGeometry y="52" width="160" height="8" as="geometry" />
        </mxCell>
        <mxCell id="e08fS9AS4xx21WkD1ZGK-4" value="+ method(type): type" style="text;strokeColor=none;fillColor=none;align=left;verticalAlign=top;spacingLeft=4;spacingRight=4;overflow=hidden;rotatable=0;points=[[0,0.5],[1,0.5]];portConstraint=eastwest;whiteSpace=wrap;html=1;" vertex="1" parent="e08fS9AS4xx21WkD1ZGK-1">
          <mxGeometry y="60" width="160" height="26" as="geometry" />
        </mxCell>
        <mxCell id="e08fS9AS4xx21WkD1ZGK-5" value="Khách vãng lai" style="swimlane;fontStyle=1;align=center;verticalAlign=top;childLayout=stackLayout;horizontal=1;startSize=26;horizontalStack=0;resizeParent=1;resizeParentMax=0;resizeLast=0;collapsible=1;marginBottom=0;whiteSpace=wrap;html=1;" vertex="1" parent="1">
          <mxGeometry y="60" width="160" height="86" as="geometry" />
        </mxCell>
        <mxCell id="e08fS9AS4xx21WkD1ZGK-6" value="+ field: type" style="text;strokeColor=none;fillColor=none;align=left;verticalAlign=top;spacingLeft=4;spacingRight=4;overflow=hidden;rotatable=0;points=[[0,0.5],[1,0.5]];portConstraint=eastwest;whiteSpace=wrap;html=1;" vertex="1" parent="e08fS9AS4xx21WkD1ZGK-5">
          <mxGeometry y="26" width="160" height="26" as="geometry" />
        </mxCell>
        <mxCell id="e08fS9AS4xx21WkD1ZGK-7" value="" style="line;strokeWidth=1;fillColor=none;align=left;verticalAlign=middle;spacingTop=-1;spacingLeft=3;spacingRight=3;rotatable=0;labelPosition=right;points=[];portConstraint=eastwest;strokeColor=inherit;" vertex="1" parent="e08fS9AS4xx21WkD1ZGK-5">
          <mxGeometry y="52" width="160" height="8" as="geometry" />
        </mxCell>
        <mxCell id="e08fS9AS4xx21WkD1ZGK-8" value="+ method(type): type" style="text;strokeColor=none;fillColor=none;align=left;verticalAlign=top;spacingLeft=4;spacingRight=4;overflow=hidden;rotatable=0;points=[[0,0.5],[1,0.5]];portConstraint=eastwest;whiteSpace=wrap;html=1;" vertex="1" parent="e08fS9AS4xx21WkD1ZGK-5">
          <mxGeometry y="60" width="160" height="26" as="geometry" />
        </mxCell>
        <mxCell id="e08fS9AS4xx21WkD1ZGK-9" value="Người bán hàng" style="swimlane;fontStyle=1;align=center;verticalAlign=top;childLayout=stackLayout;horizontal=1;startSize=26;horizontalStack=0;resizeParent=1;resizeParentMax=0;resizeLast=0;collapsible=1;marginBottom=0;whiteSpace=wrap;html=1;" vertex="1" parent="1">
          <mxGeometry x="254" y="60" width="160" height="86" as="geometry" />
        </mxCell>
        <mxCell id="e08fS9AS4xx21WkD1ZGK-10" value="+ field: type" style="text;strokeColor=none;fillColor=none;align=left;verticalAlign=top;spacingLeft=4;spacingRight=4;overflow=hidden;rotatable=0;points=[[0,0.5],[1,0.5]];portConstraint=eastwest;whiteSpace=wrap;html=1;" vertex="1" parent="e08fS9AS4xx21WkD1ZGK-9">
          <mxGeometry y="26" width="160" height="26" as="geometry" />
        </mxCell>
        <mxCell id="e08fS9AS4xx21WkD1ZGK-11" value="" style="line;strokeWidth=1;fillColor=none;align=left;verticalAlign=middle;spacingTop=-1;spacingLeft=3;spacingRight=3;rotatable=0;labelPosition=right;points=[];portConstraint=eastwest;strokeColor=inherit;" vertex="1" parent="e08fS9AS4xx21WkD1ZGK-9">
          <mxGeometry y="52" width="160" height="8" as="geometry" />
        </mxCell>
        <mxCell id="e08fS9AS4xx21WkD1ZGK-12" value="+ method(type): type" style="text;strokeColor=none;fillColor=none;align=left;verticalAlign=top;spacingLeft=4;spacingRight=4;overflow=hidden;rotatable=0;points=[[0,0.5],[1,0.5]];portConstraint=eastwest;whiteSpace=wrap;html=1;" vertex="1" parent="e08fS9AS4xx21WkD1ZGK-9">
          <mxGeometry y="60" width="160" height="26" as="geometry" />
        </mxCell>
        <mxCell id="e08fS9AS4xx21WkD1ZGK-17" value="Sản phẩm" style="swimlane;fontStyle=1;align=center;verticalAlign=top;childLayout=stackLayout;horizontal=1;startSize=26;horizontalStack=0;resizeParent=1;resizeParentMax=0;resizeLast=0;collapsible=1;marginBottom=0;whiteSpace=wrap;html=1;" vertex="1" parent="1">
          <mxGeometry x="-60" y="420" width="160" height="86" as="geometry" />
        </mxCell>
        <mxCell id="e08fS9AS4xx21WkD1ZGK-18" value="+ field: type" style="text;strokeColor=none;fillColor=none;align=left;verticalAlign=top;spacingLeft=4;spacingRight=4;overflow=hidden;rotatable=0;points=[[0,0.5],[1,0.5]];portConstraint=eastwest;whiteSpace=wrap;html=1;" vertex="1" parent="e08fS9AS4xx21WkD1ZGK-17">
          <mxGeometry y="26" width="160" height="26" as="geometry" />
        </mxCell>
        <mxCell id="e08fS9AS4xx21WkD1ZGK-19" value="" style="line;strokeWidth=1;fillColor=none;align=left;verticalAlign=middle;spacingTop=-1;spacingLeft=3;spacingRight=3;rotatable=0;labelPosition=right;points=[];portConstraint=eastwest;strokeColor=inherit;" vertex="1" parent="e08fS9AS4xx21WkD1ZGK-17">
          <mxGeometry y="52" width="160" height="8" as="geometry" />
        </mxCell>
        <mxCell id="e08fS9AS4xx21WkD1ZGK-20" value="+ method(type): type" style="text;strokeColor=none;fillColor=none;align=left;verticalAlign=top;spacingLeft=4;spacingRight=4;overflow=hidden;rotatable=0;points=[[0,0.5],[1,0.5]];portConstraint=eastwest;whiteSpace=wrap;html=1;" vertex="1" parent="e08fS9AS4xx21WkD1ZGK-17">
          <mxGeometry y="60" width="160" height="26" as="geometry" />
        </mxCell>
        <mxCell id="e08fS9AS4xx21WkD1ZGK-21" value="Danh mục" style="swimlane;fontStyle=1;align=center;verticalAlign=top;childLayout=stackLayout;horizontal=1;startSize=26;horizontalStack=0;resizeParent=1;resizeParentMax=0;resizeLast=0;collapsible=1;marginBottom=0;whiteSpace=wrap;html=1;" vertex="1" parent="1">
          <mxGeometry x="-180" y="190" width="160" height="86" as="geometry" />
        </mxCell>
        <mxCell id="e08fS9AS4xx21WkD1ZGK-22" value="+ field: type" style="text;strokeColor=none;fillColor=none;align=left;verticalAlign=top;spacingLeft=4;spacingRight=4;overflow=hidden;rotatable=0;points=[[0,0.5],[1,0.5]];portConstraint=eastwest;whiteSpace=wrap;html=1;" vertex="1" parent="e08fS9AS4xx21WkD1ZGK-21">
          <mxGeometry y="26" width="160" height="26" as="geometry" />
        </mxCell>
        <mxCell id="e08fS9AS4xx21WkD1ZGK-23" value="" style="line;strokeWidth=1;fillColor=none;align=left;verticalAlign=middle;spacingTop=-1;spacingLeft=3;spacingRight=3;rotatable=0;labelPosition=right;points=[];portConstraint=eastwest;strokeColor=inherit;" vertex="1" parent="e08fS9AS4xx21WkD1ZGK-21">
          <mxGeometry y="52" width="160" height="8" as="geometry" />
        </mxCell>
        <mxCell id="e08fS9AS4xx21WkD1ZGK-24" value="+ method(type): type" style="text;strokeColor=none;fillColor=none;align=left;verticalAlign=top;spacingLeft=4;spacingRight=4;overflow=hidden;rotatable=0;points=[[0,0.5],[1,0.5]];portConstraint=eastwest;whiteSpace=wrap;html=1;" vertex="1" parent="e08fS9AS4xx21WkD1ZGK-21">
          <mxGeometry y="60" width="160" height="26" as="geometry" />
        </mxCell>
        <mxCell id="e08fS9AS4xx21WkD1ZGK-25" value="Giỏ hàng" style="swimlane;fontStyle=1;align=center;verticalAlign=top;childLayout=stackLayout;horizontal=1;startSize=26;horizontalStack=0;resizeParent=1;resizeParentMax=0;resizeLast=0;collapsible=1;marginBottom=0;whiteSpace=wrap;html=1;" vertex="1" parent="1">
          <mxGeometry x="320" y="430" width="160" height="86" as="geometry" />
        </mxCell>
        <mxCell id="e08fS9AS4xx21WkD1ZGK-26" value="+ field: type" style="text;strokeColor=none;fillColor=none;align=left;verticalAlign=top;spacingLeft=4;spacingRight=4;overflow=hidden;rotatable=0;points=[[0,0.5],[1,0.5]];portConstraint=eastwest;whiteSpace=wrap;html=1;" vertex="1" parent="e08fS9AS4xx21WkD1ZGK-25">
          <mxGeometry y="26" width="160" height="26" as="geometry" />
        </mxCell>
        <mxCell id="e08fS9AS4xx21WkD1ZGK-27" value="" style="line;strokeWidth=1;fillColor=none;align=left;verticalAlign=middle;spacingTop=-1;spacingLeft=3;spacingRight=3;rotatable=0;labelPosition=right;points=[];portConstraint=eastwest;strokeColor=inherit;" vertex="1" parent="e08fS9AS4xx21WkD1ZGK-25">
          <mxGeometry y="52" width="160" height="8" as="geometry" />
        </mxCell>
        <mxCell id="e08fS9AS4xx21WkD1ZGK-28" value="+ method(type): type" style="text;strokeColor=none;fillColor=none;align=left;verticalAlign=top;spacingLeft=4;spacingRight=4;overflow=hidden;rotatable=0;points=[[0,0.5],[1,0.5]];portConstraint=eastwest;whiteSpace=wrap;html=1;" vertex="1" parent="e08fS9AS4xx21WkD1ZGK-25">
          <mxGeometry y="60" width="160" height="26" as="geometry" />
        </mxCell>
        <mxCell id="e08fS9AS4xx21WkD1ZGK-29" value="&amp;nbsp;Đơn hàng" style="swimlane;fontStyle=1;align=center;verticalAlign=top;childLayout=stackLayout;horizontal=1;startSize=26;horizontalStack=0;resizeParent=1;resizeParentMax=0;resizeLast=0;collapsible=1;marginBottom=0;whiteSpace=wrap;html=1;" vertex="1" parent="1">
          <mxGeometry x="270" y="276" width="160" height="86" as="geometry" />
        </mxCell>
        <mxCell id="e08fS9AS4xx21WkD1ZGK-30" value="+ field: type" style="text;strokeColor=none;fillColor=none;align=left;verticalAlign=top;spacingLeft=4;spacingRight=4;overflow=hidden;rotatable=0;points=[[0,0.5],[1,0.5]];portConstraint=eastwest;whiteSpace=wrap;html=1;" vertex="1" parent="e08fS9AS4xx21WkD1ZGK-29">
          <mxGeometry y="26" width="160" height="26" as="geometry" />
        </mxCell>
        <mxCell id="e08fS9AS4xx21WkD1ZGK-31" value="" style="line;strokeWidth=1;fillColor=none;align=left;verticalAlign=middle;spacingTop=-1;spacingLeft=3;spacingRight=3;rotatable=0;labelPosition=right;points=[];portConstraint=eastwest;strokeColor=inherit;" vertex="1" parent="e08fS9AS4xx21WkD1ZGK-29">
          <mxGeometry y="52" width="160" height="8" as="geometry" />
        </mxCell>
        <mxCell id="e08fS9AS4xx21WkD1ZGK-32" value="+ method(type): type" style="text;strokeColor=none;fillColor=none;align=left;verticalAlign=top;spacingLeft=4;spacingRight=4;overflow=hidden;rotatable=0;points=[[0,0.5],[1,0.5]];portConstraint=eastwest;whiteSpace=wrap;html=1;" vertex="1" parent="e08fS9AS4xx21WkD1ZGK-29">
          <mxGeometry y="60" width="160" height="26" as="geometry" />
        </mxCell>
        <mxCell id="e08fS9AS4xx21WkD1ZGK-33" value="Người dùng" style="swimlane;fontStyle=1;align=center;verticalAlign=top;childLayout=stackLayout;horizontal=1;startSize=26;horizontalStack=0;resizeParent=1;resizeParentMax=0;resizeLast=0;collapsible=1;marginBottom=0;whiteSpace=wrap;html=1;" vertex="1" parent="1">
          <mxGeometry x="254" y="-120" width="160" height="86" as="geometry" />
        </mxCell>
        <mxCell id="e08fS9AS4xx21WkD1ZGK-34" value="+ field: type" style="text;strokeColor=none;fillColor=none;align=left;verticalAlign=top;spacingLeft=4;spacingRight=4;overflow=hidden;rotatable=0;points=[[0,0.5],[1,0.5]];portConstraint=eastwest;whiteSpace=wrap;html=1;" vertex="1" parent="e08fS9AS4xx21WkD1ZGK-33">
          <mxGeometry y="26" width="160" height="26" as="geometry" />
        </mxCell>
        <mxCell id="e08fS9AS4xx21WkD1ZGK-35" value="" style="line;strokeWidth=1;fillColor=none;align=left;verticalAlign=middle;spacingTop=-1;spacingLeft=3;spacingRight=3;rotatable=0;labelPosition=right;points=[];portConstraint=eastwest;strokeColor=inherit;" vertex="1" parent="e08fS9AS4xx21WkD1ZGK-33">
          <mxGeometry y="52" width="160" height="8" as="geometry" />
        </mxCell>
        <mxCell id="e08fS9AS4xx21WkD1ZGK-36" value="+ method(type): type" style="text;strokeColor=none;fillColor=none;align=left;verticalAlign=top;spacingLeft=4;spacingRight=4;overflow=hidden;rotatable=0;points=[[0,0.5],[1,0.5]];portConstraint=eastwest;whiteSpace=wrap;html=1;" vertex="1" parent="e08fS9AS4xx21WkD1ZGK-33">
          <mxGeometry y="60" width="160" height="26" as="geometry" />
        </mxCell>
        <mxCell id="vbaWTxy1gxOqrRfqCZSS-1" value="Extends" style="endArrow=block;endSize=16;endFill=0;html=1;rounded=0;" edge="1" parent="1" source="e08fS9AS4xx21WkD1ZGK-1" target="e08fS9AS4xx21WkD1ZGK-33">
          <mxGeometry width="160" relative="1" as="geometry">
            <mxPoint x="290" y="150" as="sourcePoint" />
            <mxPoint x="450" y="150" as="targetPoint" />
          </mxGeometry>
        </mxCell>
        <mxCell id="vbaWTxy1gxOqrRfqCZSS-2" value="Extends" style="endArrow=block;endSize=16;endFill=0;html=1;rounded=0;" edge="1" parent="1" source="e08fS9AS4xx21WkD1ZGK-9" target="e08fS9AS4xx21WkD1ZGK-33">
          <mxGeometry width="160" relative="1" as="geometry">
            <mxPoint x="130" y="-10" as="sourcePoint" />
            <mxPoint x="290" y="-10" as="targetPoint" />
          </mxGeometry>
        </mxCell>
        <mxCell id="vbaWTxy1gxOqrRfqCZSS-6" value="" style="endArrow=diamondThin;endFill=0;endSize=24;html=1;rounded=0;" edge="1" parent="1" source="e08fS9AS4xx21WkD1ZGK-17" target="e08fS9AS4xx21WkD1ZGK-21">
          <mxGeometry width="160" relative="1" as="geometry">
            <mxPoint x="-120" y="440" as="sourcePoint" />
            <mxPoint x="40" y="440" as="targetPoint" />
          </mxGeometry>
        </mxCell>
        <mxCell id="8kbVwR1xWtQfFvE3uApO-6" value="Thuộc" style="edgeLabel;html=1;align=center;verticalAlign=middle;resizable=0;points=[];" vertex="1" connectable="0" parent="vbaWTxy1gxOqrRfqCZSS-6">
          <mxGeometry x="-0.148" y="1" relative="1" as="geometry">
            <mxPoint as="offset" />
          </mxGeometry>
        </mxCell>
        <mxCell id="NAydTzAE8Rd_9FmdclSy-9" value="1, n" style="edgeLabel;html=1;align=center;verticalAlign=middle;resizable=0;points=[];" vertex="1" connectable="0" parent="vbaWTxy1gxOqrRfqCZSS-6">
          <mxGeometry x="0.5435" y="2" relative="1" as="geometry">
            <mxPoint x="1" as="offset" />
          </mxGeometry>
        </mxCell>
        <mxCell id="UCljvS8f7sNAb7avwRbF-1" value="" style="endArrow=diamondThin;endFill=1;endSize=24;html=1;rounded=0;" edge="1" parent="1" source="e08fS9AS4xx21WkD1ZGK-25" target="e08fS9AS4xx21WkD1ZGK-17">
          <mxGeometry width="160" relative="1" as="geometry">
            <mxPoint x="180" y="500" as="sourcePoint" />
            <mxPoint x="340" y="500" as="targetPoint" />
          </mxGeometry>
        </mxCell>
        <mxCell id="8kbVwR1xWtQfFvE3uApO-3" value="Chứa" style="edgeLabel;html=1;align=center;verticalAlign=middle;resizable=0;points=[];" vertex="1" connectable="0" parent="UCljvS8f7sNAb7avwRbF-1">
          <mxGeometry x="-0.217" y="1" relative="1" as="geometry">
            <mxPoint as="offset" />
          </mxGeometry>
        </mxCell>
        <mxCell id="NAydTzAE8Rd_9FmdclSy-10" value="1, n" style="edgeLabel;html=1;align=center;verticalAlign=middle;resizable=0;points=[];" vertex="1" connectable="0" parent="UCljvS8f7sNAb7avwRbF-1">
          <mxGeometry x="-0.776" y="-1" relative="1" as="geometry">
            <mxPoint as="offset" />
          </mxGeometry>
        </mxCell>
        <mxCell id="UCljvS8f7sNAb7avwRbF-2" value="" style="endArrow=diamondThin;endFill=1;endSize=24;html=1;rounded=0;" edge="1" parent="1" source="e08fS9AS4xx21WkD1ZGK-29" target="e08fS9AS4xx21WkD1ZGK-17">
          <mxGeometry width="160" relative="1" as="geometry">
            <mxPoint x="80" y="480" as="sourcePoint" />
            <mxPoint x="240" y="480" as="targetPoint" />
          </mxGeometry>
        </mxCell>
        <mxCell id="8kbVwR1xWtQfFvE3uApO-9" value="Bao gồm" style="edgeLabel;html=1;align=center;verticalAlign=middle;resizable=0;points=[];" vertex="1" connectable="0" parent="UCljvS8f7sNAb7avwRbF-2">
          <mxGeometry x="-0.3821" y="-2" relative="1" as="geometry">
            <mxPoint as="offset" />
          </mxGeometry>
        </mxCell>
        <mxCell id="NAydTzAE8Rd_9FmdclSy-8" value="1, n" style="edgeLabel;html=1;align=center;verticalAlign=middle;resizable=0;points=[];" vertex="1" connectable="0" parent="UCljvS8f7sNAb7avwRbF-2">
          <mxGeometry x="-0.815" y="1" relative="1" as="geometry">
            <mxPoint as="offset" />
          </mxGeometry>
        </mxCell>
        <mxCell id="UCljvS8f7sNAb7avwRbF-3" value="" style="endArrow=open;endFill=1;endSize=12;html=1;rounded=0;" edge="1" parent="1" source="e08fS9AS4xx21WkD1ZGK-1" target="e08fS9AS4xx21WkD1ZGK-25">
          <mxGeometry width="160" relative="1" as="geometry">
            <mxPoint x="360" y="290" as="sourcePoint" />
            <mxPoint x="520" y="290" as="targetPoint" />
          </mxGeometry>
        </mxCell>
        <mxCell id="8kbVwR1xWtQfFvE3uApO-2" value="Thêm" style="edgeLabel;html=1;align=center;verticalAlign=middle;resizable=0;points=[];" vertex="1" connectable="0" parent="UCljvS8f7sNAb7avwRbF-3">
          <mxGeometry x="-0.1448" relative="1" as="geometry">
            <mxPoint as="offset" />
          </mxGeometry>
        </mxCell>
        <mxCell id="NAydTzAE8Rd_9FmdclSy-11" value="1, 1" style="edgeLabel;html=1;align=center;verticalAlign=middle;resizable=0;points=[];" vertex="1" connectable="0" parent="UCljvS8f7sNAb7avwRbF-3">
          <mxGeometry x="-0.8754" y="3" relative="1" as="geometry">
            <mxPoint as="offset" />
          </mxGeometry>
        </mxCell>
        <mxCell id="UCljvS8f7sNAb7avwRbF-4" value="" style="endArrow=open;endFill=1;endSize=12;html=1;rounded=0;" edge="1" parent="1" source="e08fS9AS4xx21WkD1ZGK-1" target="e08fS9AS4xx21WkD1ZGK-29">
          <mxGeometry width="160" relative="1" as="geometry">
            <mxPoint x="550" y="310" as="sourcePoint" />
            <mxPoint x="710" y="310" as="targetPoint" />
          </mxGeometry>
        </mxCell>
        <mxCell id="8kbVwR1xWtQfFvE3uApO-8" value="Tạo" style="edgeLabel;html=1;align=center;verticalAlign=middle;resizable=0;points=[];" vertex="1" connectable="0" parent="UCljvS8f7sNAb7avwRbF-4">
          <mxGeometry x="-0.1723" y="-1" relative="1" as="geometry">
            <mxPoint as="offset" />
          </mxGeometry>
        </mxCell>
        <mxCell id="NAydTzAE8Rd_9FmdclSy-12" value="1, n" style="edgeLabel;html=1;align=center;verticalAlign=middle;resizable=0;points=[];" vertex="1" connectable="0" parent="UCljvS8f7sNAb7avwRbF-4">
          <mxGeometry x="-0.7581" y="-2" relative="1" as="geometry">
            <mxPoint as="offset" />
          </mxGeometry>
        </mxCell>
        <mxCell id="UCljvS8f7sNAb7avwRbF-6" value="" style="endArrow=open;endFill=1;endSize=12;html=1;rounded=0;entryX=0.55;entryY=0;entryDx=0;entryDy=0;entryPerimeter=0;" edge="1" parent="1" source="e08fS9AS4xx21WkD1ZGK-9" target="e08fS9AS4xx21WkD1ZGK-17">
          <mxGeometry width="160" relative="1" as="geometry">
            <mxPoint x="50" y="180" as="sourcePoint" />
            <mxPoint x="210" y="180" as="targetPoint" />
          </mxGeometry>
        </mxCell>
        <mxCell id="8kbVwR1xWtQfFvE3uApO-4" value="Quản lí" style="edgeLabel;html=1;align=center;verticalAlign=middle;resizable=0;points=[];" vertex="1" connectable="0" parent="UCljvS8f7sNAb7avwRbF-6">
          <mxGeometry x="-0.0236" y="1" relative="1" as="geometry">
            <mxPoint as="offset" />
          </mxGeometry>
        </mxCell>
        <mxCell id="NAydTzAE8Rd_9FmdclSy-7" value="1, n" style="edgeLabel;html=1;align=center;verticalAlign=middle;resizable=0;points=[];" vertex="1" connectable="0" parent="UCljvS8f7sNAb7avwRbF-6">
          <mxGeometry x="-0.8131" relative="1" as="geometry">
            <mxPoint as="offset" />
          </mxGeometry>
        </mxCell>
        <mxCell id="UCljvS8f7sNAb7avwRbF-7" value="" style="endArrow=open;endFill=1;endSize=12;html=1;rounded=0;" edge="1" parent="1" source="e08fS9AS4xx21WkD1ZGK-9" target="e08fS9AS4xx21WkD1ZGK-21">
          <mxGeometry width="160" relative="1" as="geometry">
            <mxPoint x="50" y="110" as="sourcePoint" />
            <mxPoint x="210" y="110" as="targetPoint" />
          </mxGeometry>
        </mxCell>
        <mxCell id="8kbVwR1xWtQfFvE3uApO-5" value="Quản lí" style="edgeLabel;html=1;align=center;verticalAlign=middle;resizable=0;points=[];" vertex="1" connectable="0" parent="UCljvS8f7sNAb7avwRbF-7">
          <mxGeometry x="-0.0608" y="-1" relative="1" as="geometry">
            <mxPoint as="offset" />
          </mxGeometry>
        </mxCell>
        <mxCell id="NAydTzAE8Rd_9FmdclSy-6" value="1, n" style="edgeLabel;html=1;align=center;verticalAlign=middle;resizable=0;points=[];" vertex="1" connectable="0" parent="UCljvS8f7sNAb7avwRbF-7">
          <mxGeometry x="-0.856" y="1" relative="1" as="geometry">
            <mxPoint y="-1" as="offset" />
          </mxGeometry>
        </mxCell>
        <mxCell id="8kbVwR1xWtQfFvE3uApO-1" value="" style="endArrow=open;endFill=1;endSize=12;html=1;rounded=0;" edge="1" parent="1" source="e08fS9AS4xx21WkD1ZGK-9" target="e08fS9AS4xx21WkD1ZGK-29">
          <mxGeometry width="160" relative="1" as="geometry">
            <mxPoint x="20" y="70" as="sourcePoint" />
            <mxPoint x="180" y="70" as="targetPoint" />
          </mxGeometry>
        </mxCell>
        <mxCell id="8kbVwR1xWtQfFvE3uApO-7" value="Duyệt" style="edgeLabel;html=1;align=center;verticalAlign=middle;resizable=0;points=[];" vertex="1" connectable="0" parent="8kbVwR1xWtQfFvE3uApO-1">
          <mxGeometry x="-0.1624" y="-1" relative="1" as="geometry">
            <mxPoint as="offset" />
          </mxGeometry>
        </mxCell>
        <mxCell id="NAydTzAE8Rd_9FmdclSy-13" value="1, n" style="edgeLabel;html=1;align=center;verticalAlign=middle;resizable=0;points=[];" vertex="1" connectable="0" parent="8kbVwR1xWtQfFvE3uApO-1">
          <mxGeometry x="-0.738" y="2" relative="1" as="geometry">
            <mxPoint as="offset" />
          </mxGeometry>
        </mxCell>
        <mxCell id="8kbVwR1xWtQfFvE3uApO-10" value="" style="endArrow=open;endFill=1;endSize=12;html=1;rounded=0;" edge="1" parent="1" source="e08fS9AS4xx21WkD1ZGK-5" target="e08fS9AS4xx21WkD1ZGK-17">
          <mxGeometry width="160" relative="1" as="geometry">
            <mxPoint x="570" y="390" as="sourcePoint" />
            <mxPoint x="730" y="390" as="targetPoint" />
          </mxGeometry>
        </mxCell>
        <mxCell id="8kbVwR1xWtQfFvE3uApO-11" value="Xem" style="edgeLabel;html=1;align=center;verticalAlign=middle;resizable=0;points=[];" vertex="1" connectable="0" parent="8kbVwR1xWtQfFvE3uApO-10">
          <mxGeometry x="-0.2474" y="-2" relative="1" as="geometry">
            <mxPoint as="offset" />
          </mxGeometry>
        </mxCell>
        <mxCell id="NAydTzAE8Rd_9FmdclSy-14" value="1, n" style="edgeLabel;html=1;align=center;verticalAlign=middle;resizable=0;points=[];" vertex="1" connectable="0" parent="8kbVwR1xWtQfFvE3uApO-10">
          <mxGeometry x="-0.8627" relative="1" as="geometry">
            <mxPoint as="offset" />
          </mxGeometry>
        </mxCell>
        <mxCell id="8kbVwR1xWtQfFvE3uApO-12" value="Extends" style="endArrow=block;endSize=16;endFill=0;html=1;rounded=0;" edge="1" parent="1" source="e08fS9AS4xx21WkD1ZGK-5" target="e08fS9AS4xx21WkD1ZGK-33">
          <mxGeometry width="160" relative="1" as="geometry">
            <mxPoint x="50" y="-40" as="sourcePoint" />
            <mxPoint x="210" y="-40" as="targetPoint" />
          </mxGeometry>
        </mxCell>
        <mxCell id="NAydTzAE8Rd_9FmdclSy-1" value="Hệ thống bán hàng" style="swimlane;fontStyle=1;align=center;verticalAlign=top;childLayout=stackLayout;horizontal=1;startSize=26;horizontalStack=0;resizeParent=1;resizeParentMax=0;resizeLast=0;collapsible=1;marginBottom=0;whiteSpace=wrap;html=1;" vertex="1" parent="1">
          <mxGeometry x="254" y="-290" width="160" height="86" as="geometry" />
        </mxCell>
        <mxCell id="NAydTzAE8Rd_9FmdclSy-2" value="+ field: type" style="text;strokeColor=none;fillColor=none;align=left;verticalAlign=top;spacingLeft=4;spacingRight=4;overflow=hidden;rotatable=0;points=[[0,0.5],[1,0.5]];portConstraint=eastwest;whiteSpace=wrap;html=1;" vertex="1" parent="NAydTzAE8Rd_9FmdclSy-1">
          <mxGeometry y="26" width="160" height="26" as="geometry" />
        </mxCell>
        <mxCell id="NAydTzAE8Rd_9FmdclSy-3" value="" style="line;strokeWidth=1;fillColor=none;align=left;verticalAlign=middle;spacingTop=-1;spacingLeft=3;spacingRight=3;rotatable=0;labelPosition=right;points=[];portConstraint=eastwest;strokeColor=inherit;" vertex="1" parent="NAydTzAE8Rd_9FmdclSy-1">
          <mxGeometry y="52" width="160" height="8" as="geometry" />
        </mxCell>
        <mxCell id="NAydTzAE8Rd_9FmdclSy-4" value="+ method(type): type" style="text;strokeColor=none;fillColor=none;align=left;verticalAlign=top;spacingLeft=4;spacingRight=4;overflow=hidden;rotatable=0;points=[[0,0.5],[1,0.5]];portConstraint=eastwest;whiteSpace=wrap;html=1;" vertex="1" parent="NAydTzAE8Rd_9FmdclSy-1">
          <mxGeometry y="60" width="160" height="26" as="geometry" />
        </mxCell>
        <mxCell id="NAydTzAE8Rd_9FmdclSy-5" value="" style="endArrow=diamondThin;endFill=1;endSize=24;html=1;rounded=0;" edge="1" parent="1" source="e08fS9AS4xx21WkD1ZGK-33" target="NAydTzAE8Rd_9FmdclSy-1">
          <mxGeometry width="160" relative="1" as="geometry">
            <mxPoint y="-110" as="sourcePoint" />
            <mxPoint x="160" y="-110" as="targetPoint" />
          </mxGeometry>
        </mxCell>
        <mxCell id="NAydTzAE8Rd_9FmdclSy-15" value="1, n" style="edgeLabel;html=1;align=center;verticalAlign=middle;resizable=0;points=[];" vertex="1" connectable="0" parent="NAydTzAE8Rd_9FmdclSy-5">
          <mxGeometry x="0.0208" y="-1" relative="1" as="geometry">
            <mxPoint as="offset" />
          </mxGeometry>
        </mxCell>
      </root>
    </mxGraphModel>
  </diagram>
  <diagram id="E8nhVF5SDH0_ZPZRTynZ" name="ERD">
    <mxGraphModel dx="2521" dy="916" grid="1" gridSize="10" guides="1" tooltips="1" connect="1" arrows="1" fold="1" page="1" pageScale="1" pageWidth="827" pageHeight="1169" math="0" shadow="0">
      <root>
        <mxCell id="0" />
        <mxCell id="1" parent="0" />
        <mxCell id="a_9qPaK75IXFKEO8VGUM-1" value="Người dùng" style="shape=table;startSize=30;container=1;collapsible=1;childLayout=tableLayout;fixedRows=1;rowLines=0;fontStyle=1;align=center;resizeLast=1;html=1;fillColor=#E6D0DE;" parent="1" vertex="1">
          <mxGeometry x="270" y="90" width="180" height="210" as="geometry" />
        </mxCell>
        <mxCell id="a_9qPaK75IXFKEO8VGUM-2" value="" style="shape=tableRow;horizontal=0;startSize=0;swimlaneHead=0;swimlaneBody=0;fillColor=none;collapsible=0;dropTarget=0;points=[[0,0.5],[1,0.5]];portConstraint=eastwest;top=0;left=0;right=0;bottom=1;" parent="a_9qPaK75IXFKEO8VGUM-1" vertex="1">
          <mxGeometry y="30" width="180" height="30" as="geometry" />
        </mxCell>
        <mxCell id="a_9qPaK75IXFKEO8VGUM-3" value="PK" style="shape=partialRectangle;connectable=0;fillColor=none;top=0;left=0;bottom=0;right=0;fontStyle=1;overflow=hidden;whiteSpace=wrap;html=1;" parent="a_9qPaK75IXFKEO8VGUM-2" vertex="1">
          <mxGeometry width="30" height="30" as="geometry">
            <mxRectangle width="30" height="30" as="alternateBounds" />
          </mxGeometry>
        </mxCell>
        <mxCell id="a_9qPaK75IXFKEO8VGUM-4" value="ID" style="shape=partialRectangle;connectable=0;fillColor=none;top=0;left=0;bottom=0;right=0;align=left;spacingLeft=6;fontStyle=5;overflow=hidden;whiteSpace=wrap;html=1;" parent="a_9qPaK75IXFKEO8VGUM-2" vertex="1">
          <mxGeometry x="30" width="150" height="30" as="geometry">
            <mxRectangle width="150" height="30" as="alternateBounds" />
          </mxGeometry>
        </mxCell>
        <mxCell id="a_9qPaK75IXFKEO8VGUM-5" value="" style="shape=tableRow;horizontal=0;startSize=0;swimlaneHead=0;swimlaneBody=0;fillColor=none;collapsible=0;dropTarget=0;points=[[0,0.5],[1,0.5]];portConstraint=eastwest;top=0;left=0;right=0;bottom=0;" parent="a_9qPaK75IXFKEO8VGUM-1" vertex="1">
          <mxGeometry y="60" width="180" height="30" as="geometry" />
        </mxCell>
        <mxCell id="a_9qPaK75IXFKEO8VGUM-6" value="" style="shape=partialRectangle;connectable=0;fillColor=none;top=0;left=0;bottom=0;right=0;editable=1;overflow=hidden;whiteSpace=wrap;html=1;" parent="a_9qPaK75IXFKEO8VGUM-5" vertex="1">
          <mxGeometry width="30" height="30" as="geometry">
            <mxRectangle width="30" height="30" as="alternateBounds" />
          </mxGeometry>
        </mxCell>
        <mxCell id="a_9qPaK75IXFKEO8VGUM-7" value="Tên" style="shape=partialRectangle;connectable=0;fillColor=none;top=0;left=0;bottom=0;right=0;align=left;spacingLeft=6;overflow=hidden;whiteSpace=wrap;html=1;" parent="a_9qPaK75IXFKEO8VGUM-5" vertex="1">
          <mxGeometry x="30" width="150" height="30" as="geometry">
            <mxRectangle width="150" height="30" as="alternateBounds" />
          </mxGeometry>
        </mxCell>
        <mxCell id="a_9qPaK75IXFKEO8VGUM-8" value="" style="shape=tableRow;horizontal=0;startSize=0;swimlaneHead=0;swimlaneBody=0;fillColor=none;collapsible=0;dropTarget=0;points=[[0,0.5],[1,0.5]];portConstraint=eastwest;top=0;left=0;right=0;bottom=0;" parent="a_9qPaK75IXFKEO8VGUM-1" vertex="1">
          <mxGeometry y="90" width="180" height="30" as="geometry" />
        </mxCell>
        <mxCell id="a_9qPaK75IXFKEO8VGUM-9" value="" style="shape=partialRectangle;connectable=0;fillColor=none;top=0;left=0;bottom=0;right=0;editable=1;overflow=hidden;whiteSpace=wrap;html=1;" parent="a_9qPaK75IXFKEO8VGUM-8" vertex="1">
          <mxGeometry width="30" height="30" as="geometry">
            <mxRectangle width="30" height="30" as="alternateBounds" />
          </mxGeometry>
        </mxCell>
        <mxCell id="a_9qPaK75IXFKEO8VGUM-10" value="Email" style="shape=partialRectangle;connectable=0;fillColor=none;top=0;left=0;bottom=0;right=0;align=left;spacingLeft=6;overflow=hidden;whiteSpace=wrap;html=1;" parent="a_9qPaK75IXFKEO8VGUM-8" vertex="1">
          <mxGeometry x="30" width="150" height="30" as="geometry">
            <mxRectangle width="150" height="30" as="alternateBounds" />
          </mxGeometry>
        </mxCell>
        <mxCell id="a_9qPaK75IXFKEO8VGUM-11" value="" style="shape=tableRow;horizontal=0;startSize=0;swimlaneHead=0;swimlaneBody=0;fillColor=none;collapsible=0;dropTarget=0;points=[[0,0.5],[1,0.5]];portConstraint=eastwest;top=0;left=0;right=0;bottom=0;" parent="a_9qPaK75IXFKEO8VGUM-1" vertex="1">
          <mxGeometry y="120" width="180" height="30" as="geometry" />
        </mxCell>
        <mxCell id="a_9qPaK75IXFKEO8VGUM-12" value="" style="shape=partialRectangle;connectable=0;fillColor=none;top=0;left=0;bottom=0;right=0;editable=1;overflow=hidden;whiteSpace=wrap;html=1;" parent="a_9qPaK75IXFKEO8VGUM-11" vertex="1">
          <mxGeometry width="30" height="30" as="geometry">
            <mxRectangle width="30" height="30" as="alternateBounds" />
          </mxGeometry>
        </mxCell>
        <mxCell id="a_9qPaK75IXFKEO8VGUM-13" value="Mật khẩu" style="shape=partialRectangle;connectable=0;fillColor=none;top=0;left=0;bottom=0;right=0;align=left;spacingLeft=6;overflow=hidden;whiteSpace=wrap;html=1;" parent="a_9qPaK75IXFKEO8VGUM-11" vertex="1">
          <mxGeometry x="30" width="150" height="30" as="geometry">
            <mxRectangle width="150" height="30" as="alternateBounds" />
          </mxGeometry>
        </mxCell>
        <mxCell id="ErSyk-iYBk45YW5KTRnF-1" value="" style="shape=tableRow;horizontal=0;startSize=0;swimlaneHead=0;swimlaneBody=0;fillColor=none;collapsible=0;dropTarget=0;points=[[0,0.5],[1,0.5]];portConstraint=eastwest;top=0;left=0;right=0;bottom=0;" parent="a_9qPaK75IXFKEO8VGUM-1" vertex="1">
          <mxGeometry y="150" width="180" height="30" as="geometry" />
        </mxCell>
        <mxCell id="ErSyk-iYBk45YW5KTRnF-2" value="" style="shape=partialRectangle;connectable=0;fillColor=none;top=0;left=0;bottom=0;right=0;editable=1;overflow=hidden;whiteSpace=wrap;html=1;" parent="ErSyk-iYBk45YW5KTRnF-1" vertex="1">
          <mxGeometry width="30" height="30" as="geometry">
            <mxRectangle width="30" height="30" as="alternateBounds" />
          </mxGeometry>
        </mxCell>
        <mxCell id="ErSyk-iYBk45YW5KTRnF-3" value="Loại người dùng" style="shape=partialRectangle;connectable=0;fillColor=none;top=0;left=0;bottom=0;right=0;align=left;spacingLeft=6;overflow=hidden;whiteSpace=wrap;html=1;" parent="ErSyk-iYBk45YW5KTRnF-1" vertex="1">
          <mxGeometry x="30" width="150" height="30" as="geometry">
            <mxRectangle width="150" height="30" as="alternateBounds" />
          </mxGeometry>
        </mxCell>
        <mxCell id="1T2QFL5dXUTEZjxebEQM-4" value="" style="shape=tableRow;horizontal=0;startSize=0;swimlaneHead=0;swimlaneBody=0;fillColor=none;collapsible=0;dropTarget=0;points=[[0,0.5],[1,0.5]];portConstraint=eastwest;top=0;left=0;right=0;bottom=0;" parent="a_9qPaK75IXFKEO8VGUM-1" vertex="1">
          <mxGeometry y="180" width="180" height="30" as="geometry" />
        </mxCell>
        <mxCell id="1T2QFL5dXUTEZjxebEQM-5" value="" style="shape=partialRectangle;connectable=0;fillColor=none;top=0;left=0;bottom=0;right=0;editable=1;overflow=hidden;whiteSpace=wrap;html=1;" parent="1T2QFL5dXUTEZjxebEQM-4" vertex="1">
          <mxGeometry width="30" height="30" as="geometry">
            <mxRectangle width="30" height="30" as="alternateBounds" />
          </mxGeometry>
        </mxCell>
        <mxCell id="1T2QFL5dXUTEZjxebEQM-6" value="Trạng thái" style="shape=partialRectangle;connectable=0;fillColor=none;top=0;left=0;bottom=0;right=0;align=left;spacingLeft=6;overflow=hidden;whiteSpace=wrap;html=1;" parent="1T2QFL5dXUTEZjxebEQM-4" vertex="1">
          <mxGeometry x="30" width="150" height="30" as="geometry">
            <mxRectangle width="150" height="30" as="alternateBounds" />
          </mxGeometry>
        </mxCell>
        <mxCell id="a_9qPaK75IXFKEO8VGUM-14" value="Sản phẩm" style="shape=table;startSize=30;container=1;collapsible=1;childLayout=tableLayout;fixedRows=1;rowLines=0;fontStyle=1;align=center;resizeLast=1;html=1;fillColor=#E6D0DE;" parent="1" vertex="1">
          <mxGeometry x="340" y="430" width="180" height="240" as="geometry" />
        </mxCell>
        <mxCell id="a_9qPaK75IXFKEO8VGUM-15" value="" style="shape=tableRow;horizontal=0;startSize=0;swimlaneHead=0;swimlaneBody=0;fillColor=none;collapsible=0;dropTarget=0;points=[[0,0.5],[1,0.5]];portConstraint=eastwest;top=0;left=0;right=0;bottom=1;" parent="a_9qPaK75IXFKEO8VGUM-14" vertex="1">
          <mxGeometry y="30" width="180" height="30" as="geometry" />
        </mxCell>
        <mxCell id="a_9qPaK75IXFKEO8VGUM-16" value="PK" style="shape=partialRectangle;connectable=0;fillColor=none;top=0;left=0;bottom=0;right=0;fontStyle=1;overflow=hidden;whiteSpace=wrap;html=1;" parent="a_9qPaK75IXFKEO8VGUM-15" vertex="1">
          <mxGeometry width="30" height="30" as="geometry">
            <mxRectangle width="30" height="30" as="alternateBounds" />
          </mxGeometry>
        </mxCell>
        <mxCell id="a_9qPaK75IXFKEO8VGUM-17" value="ID" style="shape=partialRectangle;connectable=0;fillColor=none;top=0;left=0;bottom=0;right=0;align=left;spacingLeft=6;fontStyle=5;overflow=hidden;whiteSpace=wrap;html=1;" parent="a_9qPaK75IXFKEO8VGUM-15" vertex="1">
          <mxGeometry x="30" width="150" height="30" as="geometry">
            <mxRectangle width="150" height="30" as="alternateBounds" />
          </mxGeometry>
        </mxCell>
        <mxCell id="ErSyk-iYBk45YW5KTRnF-84" value="" style="shape=tableRow;horizontal=0;startSize=0;swimlaneHead=0;swimlaneBody=0;fillColor=none;collapsible=0;dropTarget=0;points=[[0,0.5],[1,0.5]];portConstraint=eastwest;top=0;left=0;right=0;bottom=1;" parent="a_9qPaK75IXFKEO8VGUM-14" vertex="1">
          <mxGeometry y="60" width="180" height="30" as="geometry" />
        </mxCell>
        <mxCell id="ErSyk-iYBk45YW5KTRnF-85" value="PK" style="shape=partialRectangle;connectable=0;fillColor=none;top=0;left=0;bottom=0;right=0;fontStyle=1;overflow=hidden;whiteSpace=wrap;html=1;" parent="ErSyk-iYBk45YW5KTRnF-84" vertex="1">
          <mxGeometry width="30" height="30" as="geometry">
            <mxRectangle width="30" height="30" as="alternateBounds" />
          </mxGeometry>
        </mxCell>
        <mxCell id="ErSyk-iYBk45YW5KTRnF-86" value="ID danh mục" style="shape=partialRectangle;connectable=0;fillColor=none;top=0;left=0;bottom=0;right=0;align=left;spacingLeft=6;fontStyle=5;overflow=hidden;whiteSpace=wrap;html=1;" parent="ErSyk-iYBk45YW5KTRnF-84" vertex="1">
          <mxGeometry x="30" width="150" height="30" as="geometry">
            <mxRectangle width="150" height="30" as="alternateBounds" />
          </mxGeometry>
        </mxCell>
        <mxCell id="a_9qPaK75IXFKEO8VGUM-18" value="" style="shape=tableRow;horizontal=0;startSize=0;swimlaneHead=0;swimlaneBody=0;fillColor=none;collapsible=0;dropTarget=0;points=[[0,0.5],[1,0.5]];portConstraint=eastwest;top=0;left=0;right=0;bottom=0;" parent="a_9qPaK75IXFKEO8VGUM-14" vertex="1">
          <mxGeometry y="90" width="180" height="30" as="geometry" />
        </mxCell>
        <mxCell id="a_9qPaK75IXFKEO8VGUM-19" value="" style="shape=partialRectangle;connectable=0;fillColor=none;top=0;left=0;bottom=0;right=0;editable=1;overflow=hidden;whiteSpace=wrap;html=1;" parent="a_9qPaK75IXFKEO8VGUM-18" vertex="1">
          <mxGeometry width="30" height="30" as="geometry">
            <mxRectangle width="30" height="30" as="alternateBounds" />
          </mxGeometry>
        </mxCell>
        <mxCell id="a_9qPaK75IXFKEO8VGUM-20" value="Tên" style="shape=partialRectangle;connectable=0;fillColor=none;top=0;left=0;bottom=0;right=0;align=left;spacingLeft=6;overflow=hidden;whiteSpace=wrap;html=1;" parent="a_9qPaK75IXFKEO8VGUM-18" vertex="1">
          <mxGeometry x="30" width="150" height="30" as="geometry">
            <mxRectangle width="150" height="30" as="alternateBounds" />
          </mxGeometry>
        </mxCell>
        <mxCell id="ErSyk-iYBk45YW5KTRnF-17" value="" style="shape=tableRow;horizontal=0;startSize=0;swimlaneHead=0;swimlaneBody=0;fillColor=none;collapsible=0;dropTarget=0;points=[[0,0.5],[1,0.5]];portConstraint=eastwest;top=0;left=0;right=0;bottom=0;" parent="a_9qPaK75IXFKEO8VGUM-14" vertex="1">
          <mxGeometry y="120" width="180" height="30" as="geometry" />
        </mxCell>
        <mxCell id="ErSyk-iYBk45YW5KTRnF-18" value="" style="shape=partialRectangle;connectable=0;fillColor=none;top=0;left=0;bottom=0;right=0;editable=1;overflow=hidden;whiteSpace=wrap;html=1;" parent="ErSyk-iYBk45YW5KTRnF-17" vertex="1">
          <mxGeometry width="30" height="30" as="geometry">
            <mxRectangle width="30" height="30" as="alternateBounds" />
          </mxGeometry>
        </mxCell>
        <mxCell id="ErSyk-iYBk45YW5KTRnF-19" value="Mô tả" style="shape=partialRectangle;connectable=0;fillColor=none;top=0;left=0;bottom=0;right=0;align=left;spacingLeft=6;overflow=hidden;whiteSpace=wrap;html=1;" parent="ErSyk-iYBk45YW5KTRnF-17" vertex="1">
          <mxGeometry x="30" width="150" height="30" as="geometry">
            <mxRectangle width="150" height="30" as="alternateBounds" />
          </mxGeometry>
        </mxCell>
        <mxCell id="a_9qPaK75IXFKEO8VGUM-21" value="" style="shape=tableRow;horizontal=0;startSize=0;swimlaneHead=0;swimlaneBody=0;fillColor=none;collapsible=0;dropTarget=0;points=[[0,0.5],[1,0.5]];portConstraint=eastwest;top=0;left=0;right=0;bottom=0;" parent="a_9qPaK75IXFKEO8VGUM-14" vertex="1">
          <mxGeometry y="150" width="180" height="30" as="geometry" />
        </mxCell>
        <mxCell id="a_9qPaK75IXFKEO8VGUM-22" value="" style="shape=partialRectangle;connectable=0;fillColor=none;top=0;left=0;bottom=0;right=0;editable=1;overflow=hidden;whiteSpace=wrap;html=1;" parent="a_9qPaK75IXFKEO8VGUM-21" vertex="1">
          <mxGeometry width="30" height="30" as="geometry">
            <mxRectangle width="30" height="30" as="alternateBounds" />
          </mxGeometry>
        </mxCell>
        <mxCell id="a_9qPaK75IXFKEO8VGUM-23" value="Ảnh" style="shape=partialRectangle;connectable=0;fillColor=none;top=0;left=0;bottom=0;right=0;align=left;spacingLeft=6;overflow=hidden;whiteSpace=wrap;html=1;" parent="a_9qPaK75IXFKEO8VGUM-21" vertex="1">
          <mxGeometry x="30" width="150" height="30" as="geometry">
            <mxRectangle width="150" height="30" as="alternateBounds" />
          </mxGeometry>
        </mxCell>
        <mxCell id="a_9qPaK75IXFKEO8VGUM-24" value="" style="shape=tableRow;horizontal=0;startSize=0;swimlaneHead=0;swimlaneBody=0;fillColor=none;collapsible=0;dropTarget=0;points=[[0,0.5],[1,0.5]];portConstraint=eastwest;top=0;left=0;right=0;bottom=0;" parent="a_9qPaK75IXFKEO8VGUM-14" vertex="1">
          <mxGeometry y="180" width="180" height="30" as="geometry" />
        </mxCell>
        <mxCell id="a_9qPaK75IXFKEO8VGUM-25" value="" style="shape=partialRectangle;connectable=0;fillColor=none;top=0;left=0;bottom=0;right=0;editable=1;overflow=hidden;whiteSpace=wrap;html=1;" parent="a_9qPaK75IXFKEO8VGUM-24" vertex="1">
          <mxGeometry width="30" height="30" as="geometry">
            <mxRectangle width="30" height="30" as="alternateBounds" />
          </mxGeometry>
        </mxCell>
        <mxCell id="a_9qPaK75IXFKEO8VGUM-26" value="Giá tiền" style="shape=partialRectangle;connectable=0;fillColor=none;top=0;left=0;bottom=0;right=0;align=left;spacingLeft=6;overflow=hidden;whiteSpace=wrap;html=1;" parent="a_9qPaK75IXFKEO8VGUM-24" vertex="1">
          <mxGeometry x="30" width="150" height="30" as="geometry">
            <mxRectangle width="150" height="30" as="alternateBounds" />
          </mxGeometry>
        </mxCell>
        <mxCell id="1T2QFL5dXUTEZjxebEQM-7" value="" style="shape=tableRow;horizontal=0;startSize=0;swimlaneHead=0;swimlaneBody=0;fillColor=none;collapsible=0;dropTarget=0;points=[[0,0.5],[1,0.5]];portConstraint=eastwest;top=0;left=0;right=0;bottom=0;" parent="a_9qPaK75IXFKEO8VGUM-14" vertex="1">
          <mxGeometry y="210" width="180" height="30" as="geometry" />
        </mxCell>
        <mxCell id="1T2QFL5dXUTEZjxebEQM-8" value="" style="shape=partialRectangle;connectable=0;fillColor=none;top=0;left=0;bottom=0;right=0;editable=1;overflow=hidden;whiteSpace=wrap;html=1;" parent="1T2QFL5dXUTEZjxebEQM-7" vertex="1">
          <mxGeometry width="30" height="30" as="geometry">
            <mxRectangle width="30" height="30" as="alternateBounds" />
          </mxGeometry>
        </mxCell>
        <mxCell id="1T2QFL5dXUTEZjxebEQM-9" value="Trạng thái" style="shape=partialRectangle;connectable=0;fillColor=none;top=0;left=0;bottom=0;right=0;align=left;spacingLeft=6;overflow=hidden;whiteSpace=wrap;html=1;" parent="1T2QFL5dXUTEZjxebEQM-7" vertex="1">
          <mxGeometry x="30" width="150" height="30" as="geometry">
            <mxRectangle width="150" height="30" as="alternateBounds" />
          </mxGeometry>
        </mxCell>
        <mxCell id="a_9qPaK75IXFKEO8VGUM-27" value="Danh mục" style="shape=table;startSize=30;container=1;collapsible=1;childLayout=tableLayout;fixedRows=1;rowLines=0;fontStyle=1;align=center;resizeLast=1;html=1;fillColor=#E6D0DE;" parent="1" vertex="1">
          <mxGeometry x="140" y="910" width="180" height="120" as="geometry" />
        </mxCell>
        <mxCell id="a_9qPaK75IXFKEO8VGUM-28" value="" style="shape=tableRow;horizontal=0;startSize=0;swimlaneHead=0;swimlaneBody=0;fillColor=none;collapsible=0;dropTarget=0;points=[[0,0.5],[1,0.5]];portConstraint=eastwest;top=0;left=0;right=0;bottom=1;" parent="a_9qPaK75IXFKEO8VGUM-27" vertex="1">
          <mxGeometry y="30" width="180" height="30" as="geometry" />
        </mxCell>
        <mxCell id="a_9qPaK75IXFKEO8VGUM-29" value="PK" style="shape=partialRectangle;connectable=0;fillColor=none;top=0;left=0;bottom=0;right=0;fontStyle=1;overflow=hidden;whiteSpace=wrap;html=1;" parent="a_9qPaK75IXFKEO8VGUM-28" vertex="1">
          <mxGeometry width="30" height="30" as="geometry">
            <mxRectangle width="30" height="30" as="alternateBounds" />
          </mxGeometry>
        </mxCell>
        <mxCell id="a_9qPaK75IXFKEO8VGUM-30" value="ID" style="shape=partialRectangle;connectable=0;fillColor=none;top=0;left=0;bottom=0;right=0;align=left;spacingLeft=6;fontStyle=5;overflow=hidden;whiteSpace=wrap;html=1;" parent="a_9qPaK75IXFKEO8VGUM-28" vertex="1">
          <mxGeometry x="30" width="150" height="30" as="geometry">
            <mxRectangle width="150" height="30" as="alternateBounds" />
          </mxGeometry>
        </mxCell>
        <mxCell id="a_9qPaK75IXFKEO8VGUM-31" value="" style="shape=tableRow;horizontal=0;startSize=0;swimlaneHead=0;swimlaneBody=0;fillColor=none;collapsible=0;dropTarget=0;points=[[0,0.5],[1,0.5]];portConstraint=eastwest;top=0;left=0;right=0;bottom=0;" parent="a_9qPaK75IXFKEO8VGUM-27" vertex="1">
          <mxGeometry y="60" width="180" height="30" as="geometry" />
        </mxCell>
        <mxCell id="a_9qPaK75IXFKEO8VGUM-32" value="" style="shape=partialRectangle;connectable=0;fillColor=none;top=0;left=0;bottom=0;right=0;editable=1;overflow=hidden;whiteSpace=wrap;html=1;" parent="a_9qPaK75IXFKEO8VGUM-31" vertex="1">
          <mxGeometry width="30" height="30" as="geometry">
            <mxRectangle width="30" height="30" as="alternateBounds" />
          </mxGeometry>
        </mxCell>
        <mxCell id="a_9qPaK75IXFKEO8VGUM-33" value="Tên" style="shape=partialRectangle;connectable=0;fillColor=none;top=0;left=0;bottom=0;right=0;align=left;spacingLeft=6;overflow=hidden;whiteSpace=wrap;html=1;" parent="a_9qPaK75IXFKEO8VGUM-31" vertex="1">
          <mxGeometry x="30" width="150" height="30" as="geometry">
            <mxRectangle width="150" height="30" as="alternateBounds" />
          </mxGeometry>
        </mxCell>
        <mxCell id="a_9qPaK75IXFKEO8VGUM-34" value="" style="shape=tableRow;horizontal=0;startSize=0;swimlaneHead=0;swimlaneBody=0;fillColor=none;collapsible=0;dropTarget=0;points=[[0,0.5],[1,0.5]];portConstraint=eastwest;top=0;left=0;right=0;bottom=0;" parent="a_9qPaK75IXFKEO8VGUM-27" vertex="1">
          <mxGeometry y="90" width="180" height="30" as="geometry" />
        </mxCell>
        <mxCell id="a_9qPaK75IXFKEO8VGUM-35" value="" style="shape=partialRectangle;connectable=0;fillColor=none;top=0;left=0;bottom=0;right=0;editable=1;overflow=hidden;whiteSpace=wrap;html=1;" parent="a_9qPaK75IXFKEO8VGUM-34" vertex="1">
          <mxGeometry width="30" height="30" as="geometry">
            <mxRectangle width="30" height="30" as="alternateBounds" />
          </mxGeometry>
        </mxCell>
        <mxCell id="a_9qPaK75IXFKEO8VGUM-36" value="Ảnh" style="shape=partialRectangle;connectable=0;fillColor=none;top=0;left=0;bottom=0;right=0;align=left;spacingLeft=6;overflow=hidden;whiteSpace=wrap;html=1;" parent="a_9qPaK75IXFKEO8VGUM-34" vertex="1">
          <mxGeometry x="30" width="150" height="30" as="geometry">
            <mxRectangle width="150" height="30" as="alternateBounds" />
          </mxGeometry>
        </mxCell>
        <mxCell id="K05Z25ivBw8Azu96OCA9-1" value="Đơn hàng" style="shape=table;startSize=30;container=1;collapsible=1;childLayout=tableLayout;fixedRows=1;rowLines=0;fontStyle=1;align=center;resizeLast=1;html=1;fillColor=#E6D0DE;" parent="1" vertex="1">
          <mxGeometry x="-50" y="350" width="180" height="180" as="geometry" />
        </mxCell>
        <mxCell id="K05Z25ivBw8Azu96OCA9-2" value="" style="shape=tableRow;horizontal=0;startSize=0;swimlaneHead=0;swimlaneBody=0;fillColor=none;collapsible=0;dropTarget=0;points=[[0,0.5],[1,0.5]];portConstraint=eastwest;top=0;left=0;right=0;bottom=1;" parent="K05Z25ivBw8Azu96OCA9-1" vertex="1">
          <mxGeometry y="30" width="180" height="30" as="geometry" />
        </mxCell>
        <mxCell id="K05Z25ivBw8Azu96OCA9-3" value="PK" style="shape=partialRectangle;connectable=0;fillColor=none;top=0;left=0;bottom=0;right=0;fontStyle=1;overflow=hidden;whiteSpace=wrap;html=1;" parent="K05Z25ivBw8Azu96OCA9-2" vertex="1">
          <mxGeometry width="30" height="30" as="geometry">
            <mxRectangle width="30" height="30" as="alternateBounds" />
          </mxGeometry>
        </mxCell>
        <mxCell id="K05Z25ivBw8Azu96OCA9-4" value="ID" style="shape=partialRectangle;connectable=0;fillColor=none;top=0;left=0;bottom=0;right=0;align=left;spacingLeft=6;fontStyle=5;overflow=hidden;whiteSpace=wrap;html=1;" parent="K05Z25ivBw8Azu96OCA9-2" vertex="1">
          <mxGeometry x="30" width="150" height="30" as="geometry">
            <mxRectangle width="150" height="30" as="alternateBounds" />
          </mxGeometry>
        </mxCell>
        <mxCell id="ErSyk-iYBk45YW5KTRnF-48" value="" style="shape=tableRow;horizontal=0;startSize=0;swimlaneHead=0;swimlaneBody=0;fillColor=none;collapsible=0;dropTarget=0;points=[[0,0.5],[1,0.5]];portConstraint=eastwest;top=0;left=0;right=0;bottom=1;" parent="K05Z25ivBw8Azu96OCA9-1" vertex="1">
          <mxGeometry y="60" width="180" height="30" as="geometry" />
        </mxCell>
        <mxCell id="ErSyk-iYBk45YW5KTRnF-49" value="PK" style="shape=partialRectangle;connectable=0;fillColor=none;top=0;left=0;bottom=0;right=0;fontStyle=1;overflow=hidden;whiteSpace=wrap;html=1;" parent="ErSyk-iYBk45YW5KTRnF-48" vertex="1">
          <mxGeometry width="30" height="30" as="geometry">
            <mxRectangle width="30" height="30" as="alternateBounds" />
          </mxGeometry>
        </mxCell>
        <mxCell id="ErSyk-iYBk45YW5KTRnF-50" value="ID người mua" style="shape=partialRectangle;connectable=0;fillColor=none;top=0;left=0;bottom=0;right=0;align=left;spacingLeft=6;fontStyle=5;overflow=hidden;whiteSpace=wrap;html=1;" parent="ErSyk-iYBk45YW5KTRnF-48" vertex="1">
          <mxGeometry x="30" width="150" height="30" as="geometry">
            <mxRectangle width="150" height="30" as="alternateBounds" />
          </mxGeometry>
        </mxCell>
        <mxCell id="K05Z25ivBw8Azu96OCA9-5" value="" style="shape=tableRow;horizontal=0;startSize=0;swimlaneHead=0;swimlaneBody=0;fillColor=none;collapsible=0;dropTarget=0;points=[[0,0.5],[1,0.5]];portConstraint=eastwest;top=0;left=0;right=0;bottom=0;" parent="K05Z25ivBw8Azu96OCA9-1" vertex="1">
          <mxGeometry y="90" width="180" height="30" as="geometry" />
        </mxCell>
        <mxCell id="K05Z25ivBw8Azu96OCA9-6" value="" style="shape=partialRectangle;connectable=0;fillColor=none;top=0;left=0;bottom=0;right=0;editable=1;overflow=hidden;whiteSpace=wrap;html=1;" parent="K05Z25ivBw8Azu96OCA9-5" vertex="1">
          <mxGeometry width="30" height="30" as="geometry">
            <mxRectangle width="30" height="30" as="alternateBounds" />
          </mxGeometry>
        </mxCell>
        <mxCell id="K05Z25ivBw8Azu96OCA9-7" value="Trạng thái" style="shape=partialRectangle;connectable=0;fillColor=none;top=0;left=0;bottom=0;right=0;align=left;spacingLeft=6;overflow=hidden;whiteSpace=wrap;html=1;" parent="K05Z25ivBw8Azu96OCA9-5" vertex="1">
          <mxGeometry x="30" width="150" height="30" as="geometry">
            <mxRectangle width="150" height="30" as="alternateBounds" />
          </mxGeometry>
        </mxCell>
        <mxCell id="1T2QFL5dXUTEZjxebEQM-1" value="" style="shape=tableRow;horizontal=0;startSize=0;swimlaneHead=0;swimlaneBody=0;fillColor=none;collapsible=0;dropTarget=0;points=[[0,0.5],[1,0.5]];portConstraint=eastwest;top=0;left=0;right=0;bottom=0;" parent="K05Z25ivBw8Azu96OCA9-1" vertex="1">
          <mxGeometry y="120" width="180" height="30" as="geometry" />
        </mxCell>
        <mxCell id="1T2QFL5dXUTEZjxebEQM-2" value="" style="shape=partialRectangle;connectable=0;fillColor=none;top=0;left=0;bottom=0;right=0;editable=1;overflow=hidden;whiteSpace=wrap;html=1;" parent="1T2QFL5dXUTEZjxebEQM-1" vertex="1">
          <mxGeometry width="30" height="30" as="geometry">
            <mxRectangle width="30" height="30" as="alternateBounds" />
          </mxGeometry>
        </mxCell>
        <mxCell id="1T2QFL5dXUTEZjxebEQM-3" value="thành tiền" style="shape=partialRectangle;connectable=0;fillColor=none;top=0;left=0;bottom=0;right=0;align=left;spacingLeft=6;overflow=hidden;whiteSpace=wrap;html=1;" parent="1T2QFL5dXUTEZjxebEQM-1" vertex="1">
          <mxGeometry x="30" width="150" height="30" as="geometry">
            <mxRectangle width="150" height="30" as="alternateBounds" />
          </mxGeometry>
        </mxCell>
        <mxCell id="K05Z25ivBw8Azu96OCA9-8" value="" style="shape=tableRow;horizontal=0;startSize=0;swimlaneHead=0;swimlaneBody=0;fillColor=none;collapsible=0;dropTarget=0;points=[[0,0.5],[1,0.5]];portConstraint=eastwest;top=0;left=0;right=0;bottom=0;" parent="K05Z25ivBw8Azu96OCA9-1" vertex="1">
          <mxGeometry y="150" width="180" height="30" as="geometry" />
        </mxCell>
        <mxCell id="K05Z25ivBw8Azu96OCA9-9" value="" style="shape=partialRectangle;connectable=0;fillColor=none;top=0;left=0;bottom=0;right=0;editable=1;overflow=hidden;whiteSpace=wrap;html=1;" parent="K05Z25ivBw8Azu96OCA9-8" vertex="1">
          <mxGeometry width="30" height="30" as="geometry">
            <mxRectangle width="30" height="30" as="alternateBounds" />
          </mxGeometry>
        </mxCell>
        <mxCell id="K05Z25ivBw8Azu96OCA9-10" value="ngày mua" style="shape=partialRectangle;connectable=0;fillColor=none;top=0;left=0;bottom=0;right=0;align=left;spacingLeft=6;overflow=hidden;whiteSpace=wrap;html=1;" parent="K05Z25ivBw8Azu96OCA9-8" vertex="1">
          <mxGeometry x="30" width="150" height="30" as="geometry">
            <mxRectangle width="150" height="30" as="alternateBounds" />
          </mxGeometry>
        </mxCell>
        <mxCell id="K05Z25ivBw8Azu96OCA9-14" value="Giỏ hàng" style="shape=table;startSize=30;container=1;collapsible=1;childLayout=tableLayout;fixedRows=1;rowLines=0;fontStyle=1;align=center;resizeLast=1;html=1;fillColor=#E6D0DE;" parent="1" vertex="1">
          <mxGeometry x="647" y="290" width="180" height="90" as="geometry" />
        </mxCell>
        <mxCell id="K05Z25ivBw8Azu96OCA9-15" value="" style="shape=tableRow;horizontal=0;startSize=0;swimlaneHead=0;swimlaneBody=0;fillColor=none;collapsible=0;dropTarget=0;points=[[0,0.5],[1,0.5]];portConstraint=eastwest;top=0;left=0;right=0;bottom=1;" parent="K05Z25ivBw8Azu96OCA9-14" vertex="1">
          <mxGeometry y="30" width="180" height="30" as="geometry" />
        </mxCell>
        <mxCell id="K05Z25ivBw8Azu96OCA9-16" value="PK" style="shape=partialRectangle;connectable=0;fillColor=none;top=0;left=0;bottom=0;right=0;fontStyle=1;overflow=hidden;whiteSpace=wrap;html=1;" parent="K05Z25ivBw8Azu96OCA9-15" vertex="1">
          <mxGeometry width="30" height="30" as="geometry">
            <mxRectangle width="30" height="30" as="alternateBounds" />
          </mxGeometry>
        </mxCell>
        <mxCell id="K05Z25ivBw8Azu96OCA9-17" value="ID" style="shape=partialRectangle;connectable=0;fillColor=none;top=0;left=0;bottom=0;right=0;align=left;spacingLeft=6;fontStyle=5;overflow=hidden;whiteSpace=wrap;html=1;" parent="K05Z25ivBw8Azu96OCA9-15" vertex="1">
          <mxGeometry x="30" width="150" height="30" as="geometry">
            <mxRectangle width="150" height="30" as="alternateBounds" />
          </mxGeometry>
        </mxCell>
        <mxCell id="ErSyk-iYBk45YW5KTRnF-23" value="" style="shape=tableRow;horizontal=0;startSize=0;swimlaneHead=0;swimlaneBody=0;fillColor=none;collapsible=0;dropTarget=0;points=[[0,0.5],[1,0.5]];portConstraint=eastwest;top=0;left=0;right=0;bottom=1;" parent="K05Z25ivBw8Azu96OCA9-14" vertex="1">
          <mxGeometry y="60" width="180" height="30" as="geometry" />
        </mxCell>
        <mxCell id="ErSyk-iYBk45YW5KTRnF-24" value="PK" style="shape=partialRectangle;connectable=0;fillColor=none;top=0;left=0;bottom=0;right=0;fontStyle=1;overflow=hidden;whiteSpace=wrap;html=1;" parent="ErSyk-iYBk45YW5KTRnF-23" vertex="1">
          <mxGeometry width="30" height="30" as="geometry">
            <mxRectangle width="30" height="30" as="alternateBounds" />
          </mxGeometry>
        </mxCell>
        <mxCell id="ErSyk-iYBk45YW5KTRnF-25" value="ID Người mua" style="shape=partialRectangle;connectable=0;fillColor=none;top=0;left=0;bottom=0;right=0;align=left;spacingLeft=6;fontStyle=5;overflow=hidden;whiteSpace=wrap;html=1;" parent="ErSyk-iYBk45YW5KTRnF-23" vertex="1">
          <mxGeometry x="30" width="150" height="30" as="geometry">
            <mxRectangle width="150" height="30" as="alternateBounds" />
          </mxGeometry>
        </mxCell>
        <mxCell id="ErSyk-iYBk45YW5KTRnF-29" value="Chi tiết giỏ hàng" style="shape=table;startSize=30;container=1;collapsible=1;childLayout=tableLayout;fixedRows=1;rowLines=0;fontStyle=1;align=center;resizeLast=1;html=1;fillColor=#E6D0DE;" parent="1" vertex="1">
          <mxGeometry x="660" y="540" width="180" height="150" as="geometry" />
        </mxCell>
        <mxCell id="ErSyk-iYBk45YW5KTRnF-30" value="" style="shape=tableRow;horizontal=0;startSize=0;swimlaneHead=0;swimlaneBody=0;fillColor=none;collapsible=0;dropTarget=0;points=[[0,0.5],[1,0.5]];portConstraint=eastwest;top=0;left=0;right=0;bottom=1;" parent="ErSyk-iYBk45YW5KTRnF-29" vertex="1">
          <mxGeometry y="30" width="180" height="30" as="geometry" />
        </mxCell>
        <mxCell id="ErSyk-iYBk45YW5KTRnF-31" value="PK" style="shape=partialRectangle;connectable=0;fillColor=none;top=0;left=0;bottom=0;right=0;fontStyle=1;overflow=hidden;whiteSpace=wrap;html=1;" parent="ErSyk-iYBk45YW5KTRnF-30" vertex="1">
          <mxGeometry width="30" height="30" as="geometry">
            <mxRectangle width="30" height="30" as="alternateBounds" />
          </mxGeometry>
        </mxCell>
        <mxCell id="ErSyk-iYBk45YW5KTRnF-32" value="ID" style="shape=partialRectangle;connectable=0;fillColor=none;top=0;left=0;bottom=0;right=0;align=left;spacingLeft=6;fontStyle=5;overflow=hidden;whiteSpace=wrap;html=1;" parent="ErSyk-iYBk45YW5KTRnF-30" vertex="1">
          <mxGeometry x="30" width="150" height="30" as="geometry">
            <mxRectangle width="150" height="30" as="alternateBounds" />
          </mxGeometry>
        </mxCell>
        <mxCell id="ErSyk-iYBk45YW5KTRnF-42" value="" style="shape=tableRow;horizontal=0;startSize=0;swimlaneHead=0;swimlaneBody=0;fillColor=none;collapsible=0;dropTarget=0;points=[[0,0.5],[1,0.5]];portConstraint=eastwest;top=0;left=0;right=0;bottom=1;" parent="ErSyk-iYBk45YW5KTRnF-29" vertex="1">
          <mxGeometry y="60" width="180" height="30" as="geometry" />
        </mxCell>
        <mxCell id="ErSyk-iYBk45YW5KTRnF-43" value="PK" style="shape=partialRectangle;connectable=0;fillColor=none;top=0;left=0;bottom=0;right=0;fontStyle=1;overflow=hidden;whiteSpace=wrap;html=1;" parent="ErSyk-iYBk45YW5KTRnF-42" vertex="1">
          <mxGeometry width="30" height="30" as="geometry">
            <mxRectangle width="30" height="30" as="alternateBounds" />
          </mxGeometry>
        </mxCell>
        <mxCell id="ErSyk-iYBk45YW5KTRnF-44" value="ID giỏ hàng" style="shape=partialRectangle;connectable=0;fillColor=none;top=0;left=0;bottom=0;right=0;align=left;spacingLeft=6;fontStyle=5;overflow=hidden;whiteSpace=wrap;html=1;" parent="ErSyk-iYBk45YW5KTRnF-42" vertex="1">
          <mxGeometry x="30" width="150" height="30" as="geometry">
            <mxRectangle width="150" height="30" as="alternateBounds" />
          </mxGeometry>
        </mxCell>
        <mxCell id="ErSyk-iYBk45YW5KTRnF-45" value="" style="shape=tableRow;horizontal=0;startSize=0;swimlaneHead=0;swimlaneBody=0;fillColor=none;collapsible=0;dropTarget=0;points=[[0,0.5],[1,0.5]];portConstraint=eastwest;top=0;left=0;right=0;bottom=1;" parent="ErSyk-iYBk45YW5KTRnF-29" vertex="1">
          <mxGeometry y="90" width="180" height="30" as="geometry" />
        </mxCell>
        <mxCell id="ErSyk-iYBk45YW5KTRnF-46" value="PK" style="shape=partialRectangle;connectable=0;fillColor=none;top=0;left=0;bottom=0;right=0;fontStyle=1;overflow=hidden;whiteSpace=wrap;html=1;" parent="ErSyk-iYBk45YW5KTRnF-45" vertex="1">
          <mxGeometry width="30" height="30" as="geometry">
            <mxRectangle width="30" height="30" as="alternateBounds" />
          </mxGeometry>
        </mxCell>
        <mxCell id="ErSyk-iYBk45YW5KTRnF-47" value="ID sản phẩm" style="shape=partialRectangle;connectable=0;fillColor=none;top=0;left=0;bottom=0;right=0;align=left;spacingLeft=6;fontStyle=5;overflow=hidden;whiteSpace=wrap;html=1;" parent="ErSyk-iYBk45YW5KTRnF-45" vertex="1">
          <mxGeometry x="30" width="150" height="30" as="geometry">
            <mxRectangle width="150" height="30" as="alternateBounds" />
          </mxGeometry>
        </mxCell>
        <mxCell id="ErSyk-iYBk45YW5KTRnF-33" value="" style="shape=tableRow;horizontal=0;startSize=0;swimlaneHead=0;swimlaneBody=0;fillColor=none;collapsible=0;dropTarget=0;points=[[0,0.5],[1,0.5]];portConstraint=eastwest;top=0;left=0;right=0;bottom=0;" parent="ErSyk-iYBk45YW5KTRnF-29" vertex="1">
          <mxGeometry y="120" width="180" height="30" as="geometry" />
        </mxCell>
        <mxCell id="ErSyk-iYBk45YW5KTRnF-34" value="" style="shape=partialRectangle;connectable=0;fillColor=none;top=0;left=0;bottom=0;right=0;editable=1;overflow=hidden;whiteSpace=wrap;html=1;" parent="ErSyk-iYBk45YW5KTRnF-33" vertex="1">
          <mxGeometry width="30" height="30" as="geometry">
            <mxRectangle width="30" height="30" as="alternateBounds" />
          </mxGeometry>
        </mxCell>
        <mxCell id="ErSyk-iYBk45YW5KTRnF-35" value="số lượng sản phẩm" style="shape=partialRectangle;connectable=0;fillColor=none;top=0;left=0;bottom=0;right=0;align=left;spacingLeft=6;overflow=hidden;whiteSpace=wrap;html=1;" parent="ErSyk-iYBk45YW5KTRnF-33" vertex="1">
          <mxGeometry x="30" width="150" height="30" as="geometry">
            <mxRectangle width="150" height="30" as="alternateBounds" />
          </mxGeometry>
        </mxCell>
        <mxCell id="ErSyk-iYBk45YW5KTRnF-51" value="Chi tiết đơn hàng" style="shape=table;startSize=30;container=1;collapsible=1;childLayout=tableLayout;fixedRows=1;rowLines=0;fontStyle=1;align=center;resizeLast=1;html=1;" parent="1" vertex="1">
          <mxGeometry x="-300" y="620" width="180" height="150" as="geometry" />
        </mxCell>
        <mxCell id="ErSyk-iYBk45YW5KTRnF-52" value="" style="shape=tableRow;horizontal=0;startSize=0;swimlaneHead=0;swimlaneBody=0;fillColor=none;collapsible=0;dropTarget=0;points=[[0,0.5],[1,0.5]];portConstraint=eastwest;top=0;left=0;right=0;bottom=1;" parent="ErSyk-iYBk45YW5KTRnF-51" vertex="1">
          <mxGeometry y="30" width="180" height="30" as="geometry" />
        </mxCell>
        <mxCell id="ErSyk-iYBk45YW5KTRnF-53" value="PK" style="shape=partialRectangle;connectable=0;fillColor=none;top=0;left=0;bottom=0;right=0;fontStyle=1;overflow=hidden;whiteSpace=wrap;html=1;" parent="ErSyk-iYBk45YW5KTRnF-52" vertex="1">
          <mxGeometry width="30" height="30" as="geometry">
            <mxRectangle width="30" height="30" as="alternateBounds" />
          </mxGeometry>
        </mxCell>
        <mxCell id="ErSyk-iYBk45YW5KTRnF-54" value="ID" style="shape=partialRectangle;connectable=0;fillColor=none;top=0;left=0;bottom=0;right=0;align=left;spacingLeft=6;fontStyle=5;overflow=hidden;whiteSpace=wrap;html=1;" parent="ErSyk-iYBk45YW5KTRnF-52" vertex="1">
          <mxGeometry x="30" width="150" height="30" as="geometry">
            <mxRectangle width="150" height="30" as="alternateBounds" />
          </mxGeometry>
        </mxCell>
        <mxCell id="ErSyk-iYBk45YW5KTRnF-64" value="" style="shape=tableRow;horizontal=0;startSize=0;swimlaneHead=0;swimlaneBody=0;fillColor=none;collapsible=0;dropTarget=0;points=[[0,0.5],[1,0.5]];portConstraint=eastwest;top=0;left=0;right=0;bottom=1;" parent="ErSyk-iYBk45YW5KTRnF-51" vertex="1">
          <mxGeometry y="60" width="180" height="30" as="geometry" />
        </mxCell>
        <mxCell id="ErSyk-iYBk45YW5KTRnF-65" value="PK" style="shape=partialRectangle;connectable=0;fillColor=none;top=0;left=0;bottom=0;right=0;fontStyle=1;overflow=hidden;whiteSpace=wrap;html=1;" parent="ErSyk-iYBk45YW5KTRnF-64" vertex="1">
          <mxGeometry width="30" height="30" as="geometry">
            <mxRectangle width="30" height="30" as="alternateBounds" />
          </mxGeometry>
        </mxCell>
        <mxCell id="ErSyk-iYBk45YW5KTRnF-66" value="ID đơn hàng" style="shape=partialRectangle;connectable=0;fillColor=none;top=0;left=0;bottom=0;right=0;align=left;spacingLeft=6;fontStyle=5;overflow=hidden;whiteSpace=wrap;html=1;" parent="ErSyk-iYBk45YW5KTRnF-64" vertex="1">
          <mxGeometry x="30" width="150" height="30" as="geometry">
            <mxRectangle width="150" height="30" as="alternateBounds" />
          </mxGeometry>
        </mxCell>
        <mxCell id="ErSyk-iYBk45YW5KTRnF-67" value="" style="shape=tableRow;horizontal=0;startSize=0;swimlaneHead=0;swimlaneBody=0;fillColor=none;collapsible=0;dropTarget=0;points=[[0,0.5],[1,0.5]];portConstraint=eastwest;top=0;left=0;right=0;bottom=1;" parent="ErSyk-iYBk45YW5KTRnF-51" vertex="1">
          <mxGeometry y="90" width="180" height="30" as="geometry" />
        </mxCell>
        <mxCell id="ErSyk-iYBk45YW5KTRnF-68" value="PK" style="shape=partialRectangle;connectable=0;fillColor=none;top=0;left=0;bottom=0;right=0;fontStyle=1;overflow=hidden;whiteSpace=wrap;html=1;" parent="ErSyk-iYBk45YW5KTRnF-67" vertex="1">
          <mxGeometry width="30" height="30" as="geometry">
            <mxRectangle width="30" height="30" as="alternateBounds" />
          </mxGeometry>
        </mxCell>
        <mxCell id="ErSyk-iYBk45YW5KTRnF-69" value="ID sản phẩm" style="shape=partialRectangle;connectable=0;fillColor=none;top=0;left=0;bottom=0;right=0;align=left;spacingLeft=6;fontStyle=5;overflow=hidden;whiteSpace=wrap;html=1;" parent="ErSyk-iYBk45YW5KTRnF-67" vertex="1">
          <mxGeometry x="30" width="150" height="30" as="geometry">
            <mxRectangle width="150" height="30" as="alternateBounds" />
          </mxGeometry>
        </mxCell>
        <mxCell id="ErSyk-iYBk45YW5KTRnF-55" value="" style="shape=tableRow;horizontal=0;startSize=0;swimlaneHead=0;swimlaneBody=0;fillColor=none;collapsible=0;dropTarget=0;points=[[0,0.5],[1,0.5]];portConstraint=eastwest;top=0;left=0;right=0;bottom=0;" parent="ErSyk-iYBk45YW5KTRnF-51" vertex="1">
          <mxGeometry y="120" width="180" height="30" as="geometry" />
        </mxCell>
        <mxCell id="ErSyk-iYBk45YW5KTRnF-56" value="" style="shape=partialRectangle;connectable=0;fillColor=none;top=0;left=0;bottom=0;right=0;editable=1;overflow=hidden;whiteSpace=wrap;html=1;" parent="ErSyk-iYBk45YW5KTRnF-55" vertex="1">
          <mxGeometry width="30" height="30" as="geometry">
            <mxRectangle width="30" height="30" as="alternateBounds" />
          </mxGeometry>
        </mxCell>
        <mxCell id="ErSyk-iYBk45YW5KTRnF-57" value="Số lượng" style="shape=partialRectangle;connectable=0;fillColor=none;top=0;left=0;bottom=0;right=0;align=left;spacingLeft=6;overflow=hidden;whiteSpace=wrap;html=1;" parent="ErSyk-iYBk45YW5KTRnF-55" vertex="1">
          <mxGeometry x="30" width="150" height="30" as="geometry">
            <mxRectangle width="150" height="30" as="alternateBounds" />
          </mxGeometry>
        </mxCell>
        <mxCell id="ErSyk-iYBk45YW5KTRnF-79" value="" style="edgeStyle=entityRelationEdgeStyle;fontSize=12;html=1;endArrow=ERmandOne;startArrow=ERmandOne;rounded=0;" parent="1" source="a_9qPaK75IXFKEO8VGUM-2" target="K05Z25ivBw8Azu96OCA9-15" edge="1">
          <mxGeometry width="100" height="100" relative="1" as="geometry">
            <mxPoint x="360" y="400" as="sourcePoint" />
            <mxPoint x="460" y="300" as="targetPoint" />
          </mxGeometry>
        </mxCell>
        <mxCell id="ErSyk-iYBk45YW5KTRnF-80" value="" style="edgeStyle=entityRelationEdgeStyle;fontSize=12;html=1;endArrow=ERoneToMany;startArrow=ERmandOne;rounded=0;" parent="1" source="K05Z25ivBw8Azu96OCA9-15" target="ErSyk-iYBk45YW5KTRnF-42" edge="1">
          <mxGeometry width="100" height="100" relative="1" as="geometry">
            <mxPoint x="400" y="430" as="sourcePoint" />
            <mxPoint x="500" y="330" as="targetPoint" />
          </mxGeometry>
        </mxCell>
        <mxCell id="ErSyk-iYBk45YW5KTRnF-82" value="" style="edgeStyle=entityRelationEdgeStyle;fontSize=12;html=1;endArrow=ERoneToMany;startArrow=ERzeroToOne;rounded=0;" parent="1" source="a_9qPaK75IXFKEO8VGUM-14" target="ErSyk-iYBk45YW5KTRnF-45" edge="1">
          <mxGeometry width="100" height="100" relative="1" as="geometry">
            <mxPoint x="460" y="410" as="sourcePoint" />
            <mxPoint x="560" y="310" as="targetPoint" />
          </mxGeometry>
        </mxCell>
        <mxCell id="ErSyk-iYBk45YW5KTRnF-83" value="" style="edgeStyle=entityRelationEdgeStyle;fontSize=12;html=1;endArrow=ERoneToMany;startArrow=ERzeroToOne;rounded=0;" parent="1" source="a_9qPaK75IXFKEO8VGUM-2" target="ErSyk-iYBk45YW5KTRnF-48" edge="1">
          <mxGeometry width="100" height="100" relative="1" as="geometry">
            <mxPoint x="90" y="340" as="sourcePoint" />
            <mxPoint x="190" y="240" as="targetPoint" />
          </mxGeometry>
        </mxCell>
        <mxCell id="ErSyk-iYBk45YW5KTRnF-87" value="" style="edgeStyle=entityRelationEdgeStyle;fontSize=12;html=1;endArrow=ERoneToMany;startArrow=ERmandOne;rounded=0;" parent="1" source="a_9qPaK75IXFKEO8VGUM-28" target="ErSyk-iYBk45YW5KTRnF-84" edge="1">
          <mxGeometry width="100" height="100" relative="1" as="geometry">
            <mxPoint x="170" y="600" as="sourcePoint" />
            <mxPoint x="270" y="500" as="targetPoint" />
          </mxGeometry>
        </mxCell>
        <mxCell id="ErSyk-iYBk45YW5KTRnF-89" value="" style="edgeStyle=entityRelationEdgeStyle;fontSize=12;html=1;endArrow=ERoneToMany;startArrow=ERmandOne;rounded=0;" parent="1" source="K05Z25ivBw8Azu96OCA9-2" target="ErSyk-iYBk45YW5KTRnF-64" edge="1">
          <mxGeometry width="100" height="100" relative="1" as="geometry">
            <mxPoint x="-230" y="440" as="sourcePoint" />
            <mxPoint x="-130" y="340" as="targetPoint" />
          </mxGeometry>
        </mxCell>
        <mxCell id="C4GoRZwFnbH98DITfIJr-1" value="" style="edgeStyle=entityRelationEdgeStyle;fontSize=12;html=1;endArrow=ERmandOne;startArrow=ERmandOne;rounded=0;" edge="1" parent="1" source="ErSyk-iYBk45YW5KTRnF-67" target="a_9qPaK75IXFKEO8VGUM-15">
          <mxGeometry width="100" height="100" relative="1" as="geometry">
            <mxPoint x="20" y="780" as="sourcePoint" />
            <mxPoint x="120" y="680" as="targetPoint" />
          </mxGeometry>
        </mxCell>
      </root>
    </mxGraphModel>
  </diagram>
</mxfile>
